<?xml version="1.0" encoding="UTF-8" standalone="no"?>
<!-- Created with Inkscape (http://www.inkscape.org/) -->

<svg
   xmlns:dc="http://purl.org/dc/elements/1.1/"
   xmlns:cc="http://creativecommons.org/ns#"
   xmlns:rdf="http://www.w3.org/1999/02/22-rdf-syntax-ns#"
   xmlns:svg="http://www.w3.org/2000/svg"
   xmlns="http://www.w3.org/2000/svg"
   xmlns:sodipodi="http://sodipodi.sourceforge.net/DTD/sodipodi-0.dtd"
   xmlns:inkscape="http://www.inkscape.org/namespaces/inkscape"
   width="300mm"
   height="200mm"
   viewBox="0 0 300 200"
   version="1.1"
   id="svg8"
   inkscape:version="0.92.4 (5da689c313, 2019-01-14)"
   sodipodi:docname="bg-pattern.svg">
  <defs
     id="defs2">
    <clipPath
       id="clipPath28"
       clipPathUnits="userSpaceOnUse">
      <path
         inkscape:connector-curvature="0"
         id="path26"
         d="M 0,0 H 750 V 500 H 0 Z" />
    </clipPath>
  </defs>
  <sodipodi:namedview
     id="base"
     pagecolor="#ffffff"
     bordercolor="#666666"
     borderopacity="1.0"
     inkscape:pageopacity="0.0"
     inkscape:pageshadow="2"
     inkscape:zoom="0.35"
     inkscape:cx="294.28572"
     inkscape:cy="537.14286"
     inkscape:document-units="mm"
     inkscape:current-layer="layer1"
     showgrid="false"
     inkscape:window-width="1366"
     inkscape:window-height="705"
     inkscape:window-x="1912"
     inkscape:window-y="87"
     inkscape:window-maximized="1" />
  <metadata
     id="metadata5">
    <rdf:RDF>
      <cc:Work
         rdf:about="">
        <dc:format>image/svg+xml</dc:format>
        <dc:type
           rdf:resource="http://purl.org/dc/dcmitype/StillImage" />
        <dc:title />
      </cc:Work>
    </rdf:RDF>
  </metadata>
  <g
     inkscape:label="Layer 1"
     inkscape:groupmode="layer"
     id="layer1"
     transform="translate(0,-97)">
    <g
       clip-path="url(#clipPath28)"
       id="g24"
       transform="matrix(0.39863888,0,0,-0.39863888,0.87845763,296.67785)"
       style="stroke:#ffffff;stroke-opacity:0.35294119">
      <g
         transform="translate(397.9131,407.9092)"
         id="g30"
         style="stroke:#ffffff;stroke-opacity:0.35294119">
        <path
           inkscape:connector-curvature="0"
           id="path32"
           style="fill:none;stroke:#ffffff;stroke-width:1;stroke-linecap:butt;stroke-linejoin:miter;stroke-miterlimit:10;stroke-dasharray:none;stroke-opacity:0.35294119"
           d="m 0,0 c -11.48,-6.391 -21.617,-15.263 -29.693,-26.416 -17.811,-24.596 -25.682,-54.861 -43.571,-79.427 -15.799,-21.696 -37.454,-39.091 -58.255,-55.717 -25.006,-19.986 -43.971,-48.498 -35.599,-81.5 8.105,-31.947 35.952,-50.633 67.038,-55.992 28.525,-4.917 55.736,1.829 79.497,18.164 24.086,16.557 43.184,39.636 65.059,58.797 21.921,19.203 45.573,36.762 72.344,48.617 34.638,15.34 77.065,29.891 91.952,68.42 7.415,19.187 4.503,40.875 -8.487,56.926 -17.954,22.186 -45.061,31.278 -70.942,40.743 C 88.754,7.46 40.495,22.544 0,0 Z" />
      </g>
      <g
         transform="translate(405.333,391.7925)"
         id="g34"
         style="stroke:#ffffff;stroke-opacity:0.35294119">
        <path
           inkscape:connector-curvature="0"
           id="path36"
           style="fill:none;stroke:#ffffff;stroke-width:1;stroke-linecap:butt;stroke-linejoin:miter;stroke-miterlimit:10;stroke-dasharray:none;stroke-opacity:0.35294119"
           d="m 0,0 c -9.815,-5.492 -18.509,-13.062 -25.481,-22.541 -15.382,-20.908 -22.46,-46.583 -37.848,-67.531 -13.607,-18.516 -32.107,-33.414 -49.761,-47.783 -21.831,-17.77 -38.047,-42.761 -31.356,-71.262 6.693,-28.51 30.833,-45.652 58.437,-50.28 6.713,-1.128 13.376,-1.485 19.95,-1.134 17.725,0.948 34.88,7.052 50.534,17.667 20.728,14.164 37.316,33.823 56.191,50.264 13.906,12.115 28.579,23.512 44.463,32.838 5.706,3.351 11.567,6.435 17.605,9.19 29.663,13.584 65.667,26.577 78.436,59.577 6.605,17.044 4.208,36.207 -7.211,50.637 -15.563,19.556 -38.996,27.664 -61.528,35.688 -4.945,1.758 -10.02,3.5 -15.189,5.14 C 65.57,10.586 30.352,17.042 0,0 Z" />
      </g>
      <g
         transform="translate(412.7539,375.6758)"
         id="g38"
         style="stroke:#ffffff;stroke-opacity:0.35294119">
        <path
           inkscape:connector-curvature="0"
           id="path40"
           style="fill:none;stroke:#ffffff;stroke-width:1;stroke-linecap:butt;stroke-linejoin:miter;stroke-miterlimit:10;stroke-dasharray:none;stroke-opacity:0.35294119"
           d="m 0,0 c -8.151,-4.593 -15.401,-10.86 -21.27,-18.665 -12.953,-17.222 -19.238,-38.306 -32.124,-55.635 -11.416,-15.339 -26.756,-27.747 -41.268,-39.851 -18.654,-15.559 -32.151,-37.035 -27.113,-61.023 5.267,-25.087 25.714,-40.671 49.836,-44.568 5.822,-0.946 11.638,-1.181 17.411,-0.783 15.152,1.043 30.215,6.381 44.058,15.685 17.417,11.704 31.45,28.011 47.324,41.731 11.683,10.1 23.962,19.655 37.172,27.575 4.749,2.848 9.619,5.487 14.622,7.864 24.689,11.827 54.269,23.263 64.917,50.735 5.798,14.901 3.952,31.568 -5.933,44.347 -13.122,16.965 -32.931,24.05 -52.116,30.633 -4.221,1.444 -8.559,2.84 -12.972,4.152 C 55.689,10.177 25.859,14.687 0,0 Z" />
      </g>
      <g
         transform="translate(420.1738,359.5586)"
         id="g42"
         style="stroke:#ffffff;stroke-opacity:0.35294119">
        <path
           inkscape:connector-curvature="0"
           id="path44"
           style="fill:none;stroke:#ffffff;stroke-width:1;stroke-linecap:butt;stroke-linejoin:miter;stroke-miterlimit:10;stroke-dasharray:none;stroke-opacity:0.35294119"
           d="m 0,0 c -6.477,-3.712 -12.294,-8.658 -17.058,-14.789 -10.524,-13.535 -16.015,-30.028 -26.401,-43.739 -9.224,-12.16 -21.395,-22.093 -32.773,-31.918 -15.474,-13.36 -26.299,-31.327 -22.872,-50.785 3.818,-21.68 20.596,-35.689 41.236,-38.856 4.931,-0.764 9.9,-0.878 14.871,-0.432 12.579,1.129 25.528,5.744 37.584,13.704 14.073,9.292 25.583,22.199 38.457,33.197 9.46,8.086 19.344,15.798 29.881,22.311 3.792,2.347 7.674,4.529 11.638,6.54 19.742,10.016 42.871,19.949 51.4,41.892 4.989,12.757 3.671,26.909 -4.657,38.058 C 110.591,-10.472 94.44,-4.382 78.604,0.76 75.104,1.891 71.507,2.947 67.848,3.924 45.823,9.804 21.404,12.27 0,0 Z" />
      </g>
      <g
         transform="translate(427.5947,343.4419)"
         id="g46"
         style="stroke:#ffffff;stroke-opacity:0.35294119">
        <path
           inkscape:connector-curvature="0"
           id="path48"
           style="fill:none;stroke:#ffffff;stroke-width:1;stroke-linecap:butt;stroke-linejoin:miter;stroke-miterlimit:10;stroke-dasharray:none;stroke-opacity:0.35294119"
           d="m 0,0 c -4.811,-2.815 -9.187,-6.457 -12.847,-10.914 -8.095,-9.847 -12.793,-21.751 -20.677,-31.843 -7.033,-8.982 -16.018,-16.462 -24.28,-23.984 -12.281,-11.182 -20.517,-25.645 -18.63,-40.548 2.318,-18.298 15.477,-30.707 32.637,-33.143 4.039,-0.581 8.16,-0.58 12.33,-0.081 10.007,1.2 20.835,5.113 31.11,11.721 10.718,6.894 19.716,16.387 29.589,24.665 7.237,6.071 14.727,11.939 22.591,17.047 2.835,1.845 5.725,3.58 8.654,5.215 14.774,8.251 31.472,16.635 37.882,33.05 4.181,10.614 3.382,22.243 -3.38,31.768 C 86.66,-5.331 74.18,-0.226 61.689,3.475 58.912,4.292 56.056,5.011 53.149,5.651 35.961,9.44 16.92,9.904 0,0 Z" />
      </g>
      <g
         transform="translate(435.0146,327.3252)"
         id="g50"
         style="stroke:#ffffff;stroke-opacity:0.35294119">
        <path
           inkscape:connector-curvature="0"
           id="path52"
           style="fill:none;stroke:#ffffff;stroke-width:1;stroke-linecap:butt;stroke-linejoin:miter;stroke-miterlimit:10;stroke-dasharray:none;stroke-opacity:0.35294119"
           d="m 0,0 c -3.147,-1.913 -6.079,-4.256 -8.635,-7.038 -5.667,-6.16 -9.57,-13.474 -14.953,-19.947 -4.842,-5.804 -10.608,-10.873 -15.787,-16.052 -9.051,-9.052 -14.862,-19.988 -14.387,-30.309 0.689,-14.948 10.359,-25.725 24.035,-27.431 3.15,-0.399 6.424,-0.293 9.791,0.27 7.436,1.244 16.129,4.502 24.635,9.739 7.346,4.523 13.851,10.575 20.723,16.131 5.013,4.056 10.109,8.083 15.3,11.784 1.878,1.343 3.774,2.634 5.669,3.89 9.801,6.501 20.076,13.32 24.366,24.207 3.372,8.471 3.078,17.567 -2.105,25.479 C 62.71,-0.205 53.919,3.929 44.776,6.19 42.721,6.692 40.606,7.078 38.453,7.378 26.108,9.101 12.428,7.553 0,0 Z" />
      </g>
      <g
         transform="translate(411.3437,271.8057)"
         id="g54"
         style="stroke:#ffffff;stroke-opacity:0.35294119">
        <path
           inkscape:connector-curvature="0"
           id="path56"
           style="fill:none;stroke:#ffffff;stroke-width:1;stroke-linecap:butt;stroke-linejoin:miter;stroke-miterlimit:10;stroke-dasharray:none;stroke-opacity:0.35294119"
           d="m 0,0 c -1.699,-14.128 8.57,-24.692 22.687,-21.098 4.876,1.243 11.376,3.97 18.16,7.758 6.784,3.787 13.851,8.635 19.864,14.118 6.013,5.482 10.97,11.6 13.534,17.929 2.564,6.328 2.734,12.866 -0.828,19.189 C 68.979,45.774 62.345,48.784 54.847,48.508 47.349,48.232 38.986,44.669 31.092,39.403 23.197,34.136 15.771,27.165 10.146,20.07 4.52,12.976 0.693,5.759 0,0 Z" />
      </g>
      <g
         transform="translate(382.8418,68.8486)"
         id="g58"
         style="stroke:#ffffff;stroke-opacity:0.35294119">
        <path
           inkscape:connector-curvature="0"
           id="path60"
           style="fill:none;stroke:#ffffff;stroke-width:1;stroke-linecap:butt;stroke-linejoin:miter;stroke-miterlimit:10;stroke-dasharray:none;stroke-opacity:0.35294119"
           d="m 0,0 c 15.185,17.969 29.535,36.643 42.987,55.943 13.45,19.295 24.759,39.216 41.808,55.702 52.018,50.303 161.239,77.731 208.181,4.243 29.523,-46.222 3.934,-102.807 23.672,-151.483 8.499,-20.959 24.514,-43.306 10.171,-66.006 -5.51,-8.721 -14.957,-14.167 -24.515,-18.048 -44.782,-18.188 -98.675,-11.359 -146.103,-13.453 -49.189,-2.171 -100.308,-4.349 -148.053,9.887 -17.207,5.131 -33.675,14.832 -43.488,29.869 -23.256,35.637 9.826,63.6 31.454,88.785 C -2.585,-3.045 -1.289,-1.525 0,0 Z" />
      </g>
      <g
         transform="translate(660.376,173.9248)"
         id="g62"
         style="stroke:#ffffff;stroke-opacity:0.35294119">
        <path
           inkscape:connector-curvature="0"
           id="path64"
           style="fill:none;stroke:#ffffff;stroke-width:1;stroke-linecap:butt;stroke-linejoin:miter;stroke-miterlimit:10;stroke-dasharray:none;stroke-opacity:0.35294119"
           d="m 0,0 c 27.562,-39.719 3.792,-91.375 16.967,-131.891 5.633,-17.323 17.872,-35.381 5.506,-53.861 -4.805,-7.119 -12.754,-11.622 -20.781,-14.895 -13.108,-5.346 -27.064,-8.323 -41.3,-10.146 -26.645,-3.414 -54.164,-2.475 -79.703,-4.797 -37.706,-3.429 -77.889,-6.402 -115.876,2.567 -3.659,0.863 -7.301,1.838 -10.917,2.934 -14.835,4.498 -28.919,13.013 -37.157,26.075 -18.933,30.025 8.264,53.872 26.701,75.013 1.138,1.297 2.273,2.596 3.404,3.896 12.137,13.942 23.915,28.096 34.915,42.922 1.082,1.459 2.156,2.923 3.222,4.394 11.893,16.407 21.834,33.56 36.317,47.995 3.758,3.75 7.841,7.371 12.194,10.82 C -119.765,37.884 -39.093,56.333 0,0 Z" />
      </g>
      <g
         transform="translate(644.9346,163.1133)"
         id="g66"
         style="stroke:#ffffff;stroke-opacity:0.35294119">
        <path
           inkscape:connector-curvature="0"
           id="path68"
           style="fill:none;stroke:#ffffff;stroke-width:1;stroke-linecap:butt;stroke-linejoin:miter;stroke-miterlimit:10;stroke-dasharray:none;stroke-opacity:0.35294119"
           d="m 0,0 c 25.663,-33.205 3.625,-79.731 10.261,-112.299 2.773,-13.615 11.295,-27.506 0.841,-41.716 -4.074,-5.536 -10.551,-9.078 -17.044,-11.742 -10.621,-4.358 -21.834,-7.011 -33.159,-8.958 -21.198,-3.649 -42.603,-4.235 -62.747,-7.474 -30.59,-4.921 -64.447,-8.839 -96.37,-1.369 -3.071,0.718 -6.131,1.544 -9.162,2.483 -12.464,3.864 -24.169,11.187 -30.825,22.281 -14.636,24.392 6.645,44.193 21.946,61.241 0.971,1.081 1.949,2.155 2.923,3.229 10.45,11.526 20.871,22.89 30.478,35.073 0.944,1.198 1.88,2.404 2.808,3.617 10.337,13.519 18.91,27.905 30.826,40.289 3.105,3.235 6.44,6.384 9.994,9.384 C -101.521,25.875 -35.121,45.442 0,0 Z" />
      </g>
      <g
         transform="translate(629.4932,152.3027)"
         id="g70"
         style="stroke:#ffffff;stroke-opacity:0.35294119">
        <path
           inkscape:connector-curvature="0"
           id="path72"
           style="fill:none;stroke:#ffffff;stroke-width:1;stroke-linecap:butt;stroke-linejoin:miter;stroke-miterlimit:10;stroke-dasharray:none;stroke-opacity:0.35294119"
           d="m 0,0 c 23.861,-26.653 3.55,-67.652 3.555,-92.708 0.002,-9.755 4.67,-19.603 -3.826,-29.571 -3.359,-3.943 -8.345,-6.533 -13.306,-8.589 -8.135,-3.371 -16.603,-5.699 -25.015,-7.771 -15.753,-3.883 -31.071,-6.078 -45.792,-10.152 -23.533,-6.513 -51.005,-11.274 -76.866,-5.303 -2.482,0.574 -4.959,1.249 -7.406,2.032 -10.092,3.231 -19.43,9.349 -24.493,18.487 -10.378,18.725 5.071,34.478 17.192,47.469 0.807,0.864 1.625,1.713 2.441,2.563 8.762,9.11 17.828,17.683 26.039,27.223 0.808,0.938 1.607,1.885 2.396,2.841 8.78,10.629 15.986,22.249 25.337,32.583 2.449,2.719 5.043,5.389 7.792,7.948 C -83.224,13.789 -30.996,34.623 0,0 Z" />
      </g>
      <g
         transform="translate(614.0518,141.4912)"
         id="g74"
         style="stroke:#ffffff;stroke-opacity:0.35294119">
        <path
           inkscape:connector-curvature="0"
           id="path76"
           style="fill:none;stroke:#ffffff;stroke-width:1;stroke-linecap:butt;stroke-linejoin:miter;stroke-miterlimit:10;stroke-dasharray:none;stroke-opacity:0.35294119"
           d="m 0,0 c 22.219,-19.981 4.318,-54.99 -3.151,-73.117 -2.354,-5.711 -1.986,-11.686 -8.491,-17.425 -2.657,-2.345 -6.142,-3.989 -9.57,-5.436 -5.647,-2.383 -11.371,-4.387 -16.872,-6.583 -10.307,-4.12 -19.537,-8.111 -28.836,-12.83 -16.492,-8.369 -37.563,-13.711 -57.361,-9.237 -1.895,0.429 -3.787,0.954 -5.652,1.58 -7.719,2.598 -14.722,7.487 -18.162,14.693 -6.205,13.002 3.52,24.745 12.44,33.696 0.642,0.645 1.301,1.273 1.96,1.897 7.074,6.695 14.783,12.476 21.6,19.374 0.671,0.678 1.332,1.367 1.984,2.064 7.223,7.742 13.061,16.594 19.845,24.877 1.796,2.204 3.651,4.392 5.592,6.512 C -64.896,1.665 -26.652,23.97 0,0 Z" />
      </g>
      <g
         transform="translate(541.2148,103.7578)"
         id="g78"
         style="stroke:#ffffff;stroke-opacity:0.35294119">
        <path
           inkscape:connector-curvature="0"
           id="path80"
           style="fill:none;stroke:#ffffff;stroke-width:1;stroke-linecap:butt;stroke-linejoin:miter;stroke-miterlimit:10;stroke-dasharray:none;stroke-opacity:0.35294119"
           d="m 0,0 c -5.651,-8.486 -11.295,-17.242 -19.316,-23.534 -5.931,-4.652 -12.97,-7.793 -18.643,-12.756 -5.673,-4.962 -9.939,-12.732 -7.685,-19.924 2.071,-6.602 8.963,-10.561 15.726,-12.026 13.735,-2.977 28.935,2.311 37.857,13.171 4.143,5.043 7.02,11.153 11.88,15.507 7.638,6.843 18.676,8.123 27.719,12.958 17.064,9.126 30.674,40.583 9.858,53.527 C 35.339,40.637 10.917,16.396 0,0 Z" />
      </g>
      <g
         transform="translate(105.4741,266.1587)"
         id="g82"
         style="stroke:#ffffff;stroke-opacity:0.35294119">
        <path
           inkscape:connector-curvature="0"
           id="path84"
           style="fill:none;stroke:#ffffff;stroke-width:1;stroke-linecap:butt;stroke-linejoin:miter;stroke-miterlimit:10;stroke-dasharray:none;stroke-opacity:0.35294119"
           d="m 0,0 c 41.018,-10.783 76.412,-42.51 89.641,-82.806 4.145,-12.627 6.205,-25.925 11.225,-38.231 8.283,-20.306 24.899,-36.937 44.926,-45.753 18.142,-7.986 39.079,-5.182 57.109,-13.452 16.796,-7.703 26.564,-24 24.908,-42.534 -1.64,-18.349 -12.043,-34.566 -19.925,-50.769 -7.367,-15.144 -14.728,-31.06 -28.306,-41.716 -21.016,-16.493 -48.901,-19.175 -74.422,-23.059 -40.819,-6.212 -82.207,-9.669 -123.507,-9.669 -21.919,0.004 -44.565,1.663 -64.071,11.66 -28,14.351 -45.191,43.642 -56.094,73.156 -20.343,55.071 -23.916,118.797 -10.278,175.965 7.485,31.374 24.268,65.99 55.309,79.723 C -63.925,5.594 -31.358,8.244 0,0 Z" />
      </g>
      <g
         transform="translate(21.7207,235.7373)"
         id="g86"
         style="stroke:#ffffff;stroke-opacity:0.35294119">
        <path
           inkscape:connector-curvature="0"
           id="path88"
           style="fill:none;stroke:#ffffff;stroke-width:1;stroke-linecap:butt;stroke-linejoin:miter;stroke-miterlimit:10;stroke-dasharray:none;stroke-opacity:0.35294119"
           d="m 0,0 c 10.266,4.773 21.038,8.133 32.04,9.94 16.785,2.77 34.006,2.033 50.855,-2.241 36.516,-9.261 68.233,-37.103 80.815,-72.303 3.966,-11.042 6.164,-22.646 10.809,-33.409 7.605,-17.618 22.48,-32.338 40.315,-40.433 16.063,-7.259 34.51,-5.327 50.335,-12.902 14.691,-6.989 23.277,-21.353 21.927,-37.619 -1.324,-16.17 -10.382,-30.477 -17.509,-44.744 -6.591,-13.193 -13.234,-27.053 -25.369,-36.359 -18.786,-14.407 -43.347,-16.605 -65.813,-19.64 -35.926,-4.858 -72.164,-6.771 -108.327,-6.146 -19.074,0.33 -38.79,1.932 -55.829,10.702 -24.47,12.594 -39.707,37.925 -49.58,63.402 -7.438,19.205 -12.544,39.595 -15.29,60.322 -3.965,30.558 -2.958,61.97 3.532,91.54 3.41,15.726 9.558,32.43 19.351,46.166 C -20.542,-13.68 -11.389,-5.295 0,0 Z" />
      </g>
      <g
         transform="translate(31.4526,212.8008)"
         id="g90"
         style="stroke:#ffffff;stroke-opacity:0.35294119">
        <path
           inkscape:connector-curvature="0"
           id="path92"
           style="fill:none;stroke:#ffffff;stroke-width:1;stroke-linecap:butt;stroke-linejoin:miter;stroke-miterlimit:10;stroke-dasharray:none;stroke-opacity:0.35294119"
           d="m 0,0 c 8.813,4.365 18.163,7.535 27.766,9.271 14.69,2.682 29.766,2.213 44.537,-1.357 32.016,-7.738 60.055,-31.696 71.992,-61.801 3.786,-9.458 6.119,-19.367 10.392,-28.586 6.92,-14.929 20.061,-27.738 35.704,-35.114 13.984,-6.532 29.923,-5.509 43.561,-12.351 12.571,-6.308 19.989,-18.708 18.946,-32.705 -1.008,-13.991 -8.72,-26.388 -15.093,-38.718 -5.812,-11.243 -11.741,-23.046 -22.432,-31.004 -16.555,-12.319 -37.793,-14.032 -57.205,-16.219 -31.032,-3.506 -62.115,-3.876 -93.146,-2.624 -16.227,0.654 -33.015,2.201 -47.588,9.743 -20.939,10.838 -34.223,32.209 -43.065,53.65 -6.658,16.16 -11.443,33.271 -14.165,50.662 -4.006,25.592 -3.852,52.015 0.926,77.097 2.544,13.356 7.364,27.628 15.536,39.459 C -17.373,-11.966 -9.633,-4.77 0,0 Z" />
      </g>
      <g
         transform="translate(41.1841,189.8652)"
         id="g94"
         style="stroke:#ffffff;stroke-opacity:0.35294119">
        <path
           inkscape:connector-curvature="0"
           id="path96"
           style="fill:none;stroke:#ffffff;stroke-width:1;stroke-linecap:butt;stroke-linejoin:miter;stroke-miterlimit:10;stroke-dasharray:none;stroke-opacity:0.35294119"
           d="m 0,0 c 7.361,3.961 15.289,6.937 23.492,8.602 12.595,2.592 25.527,2.394 38.22,-0.474 27.515,-6.216 51.809,-26.321 63.168,-51.299 3.585,-7.883 6.07,-16.085 9.976,-23.764 6.227,-12.24 17.622,-23.177 31.093,-29.794 11.888,-5.839 25.345,-5.668 36.785,-11.801 10.46,-5.608 16.679,-16.059 15.967,-27.79 -0.718,-11.811 -7.055,-22.299 -12.679,-32.693 -5.029,-9.294 -10.247,-19.04 -19.493,-25.647 -14.325,-10.232 -32.24,-11.461 -48.597,-12.8 -26.139,-2.152 -52.059,-0.986 -77.966,0.899 -13.376,0.973 -27.24,2.47 -39.346,8.785 -17.409,9.082 -28.739,26.493 -36.551,43.896 -5.878,13.116 -10.313,26.948 -13.04,41.003 -4.003,20.63 -4.783,42.071 -1.679,62.655 1.658,10.991 5.186,22.813 11.719,32.751 C -14.192,-10.263 -7.876,-4.238 0,0 Z" />
      </g>
      <g
         transform="translate(50.916,166.9287)"
         id="g98"
         style="stroke:#ffffff;stroke-opacity:0.35294119">
        <path
           inkscape:connector-curvature="0"
           id="path100"
           style="fill:none;stroke:#ffffff;stroke-width:1;stroke-linecap:butt;stroke-linejoin:miter;stroke-miterlimit:10;stroke-dasharray:none;stroke-opacity:0.35294119"
           d="m 0,0 c 5.911,3.566 12.415,6.338 19.218,7.934 10.5,2.504 21.287,2.574 31.903,0.409 23.014,-4.694 43.619,-20.927 54.343,-40.796 3.402,-6.303 6.013,-12.804 9.56,-18.943 5.52,-9.55 15.198,-18.583 26.482,-24.474 9.805,-5.118 20.767,-5.824 30.011,-11.251 8.348,-4.902 13.386,-13.412 12.985,-22.875 -0.407,-9.632 -5.382,-18.211 -10.262,-26.667 -4.24,-7.347 -8.754,-15.033 -16.556,-20.291 -12.095,-8.145 -26.686,-8.89 -39.989,-9.38 -21.245,-0.8 -41.992,1.887 -62.785,4.421 -10.521,1.282 -21.466,2.739 -31.105,7.826 -13.877,7.326 -23.254,20.777 -30.037,34.145 -5.097,10.07 -9.179,20.621 -11.914,31.341 -3.996,15.663 -5.719,32.134 -4.284,48.213 0.77,8.63 3.008,17.995 7.903,26.044 C -11.01,-8.562 -6.121,-3.693 0,0 Z" />
      </g>
      <g
         transform="translate(60.6479,143.9932)"
         id="g102"
         style="stroke:#ffffff;stroke-opacity:0.35294119">
        <path
           inkscape:connector-curvature="0"
           id="path104"
           style="fill:none;stroke:#ffffff;stroke-width:1;stroke-linecap:butt;stroke-linejoin:miter;stroke-miterlimit:10;stroke-dasharray:none;stroke-opacity:0.35294119"
           d="m 0,0 c 4.459,3.188 9.544,5.726 14.943,7.264 8.412,2.394 17.048,2.756 25.587,1.292 18.512,-3.171 35.443,-15.53 45.519,-30.293 3.222,-4.721 5.94,-9.523 9.143,-14.119 4.786,-6.868 12.777,-13.986 21.871,-19.156 7.725,-4.391 16.192,-5.972 23.236,-10.701 6.24,-4.189 10.097,-10.766 10.006,-17.961 -0.096,-7.452 -3.7,-14.125 -7.847,-20.639 -3.439,-5.405 -7.26,-11.029 -13.619,-14.937 -9.864,-6.057 -21.132,-6.317 -31.381,-5.96 -16.352,0.554 -31.909,4.727 -47.604,7.944 -7.659,1.57 -15.691,3.008 -22.864,6.867 -10.346,5.571 -17.77,15.061 -23.522,24.392 -4.316,7.027 -8.037,14.287 -10.789,21.683 -3.975,10.685 -6.665,22.207 -6.89,33.769 -0.122,6.276 0.834,13.173 4.087,19.336 C -7.826,-6.864 -4.372,-3.127 0,0 Z" />
      </g>
      <g
         transform="translate(70.3799,121.0566)"
         id="g106"
         style="stroke:#ffffff;stroke-opacity:0.35294119">
        <path
           inkscape:connector-curvature="0"
           id="path108"
           style="fill:none;stroke:#ffffff;stroke-width:1;stroke-linecap:butt;stroke-linejoin:miter;stroke-miterlimit:10;stroke-dasharray:none;stroke-opacity:0.35294119"
           d="m 0,0 c 2.99,2.851 6.669,5.131 10.669,6.595 6.317,2.311 12.809,2.936 19.269,2.176 14.012,-1.649 27.29,-10.122 36.695,-19.792 3.051,-3.135 5.837,-6.254 8.727,-9.296 3.999,-4.207 10.361,-9.374 17.26,-13.835 5.65,-3.655 11.625,-6.106 16.462,-10.153 4.138,-3.462 6.814,-8.121 7.024,-13.045 0.225,-5.275 -1.992,-10.05 -5.43,-14.614 -2.616,-3.473 -5.767,-7.021 -10.682,-9.58 -7.634,-3.97 -15.579,-3.747 -22.772,-2.54 -11.459,1.906 -21.816,7.471 -32.425,11.466 -4.794,1.805 -9.915,3.277 -14.622,5.908 -6.816,3.815 -12.285,9.346 -17.008,14.64 -3.535,3.982 -6.865,7.945 -9.663,12.022 -3.91,5.699 -7.648,12.301 -9.496,19.327 -1.033,3.933 -1.33,8.339 0.271,12.629 C -4.633,-5.175 -2.642,-2.519 0,0 Z" />
      </g>
      <g
         transform="translate(78.7944,93.1553)"
         id="g110"
         style="stroke:#ffffff;stroke-opacity:0.35294119">
        <path
           inkscape:connector-curvature="0"
           id="path112"
           style="fill:none;stroke:#ffffff;stroke-width:1;stroke-linecap:butt;stroke-linejoin:miter;stroke-miterlimit:10;stroke-dasharray:none;stroke-opacity:0.35294119"
           d="m 0,0 c 0.33,-6.46 9.669,-9.455 15.646,-10.806 9.534,-2.155 18.261,-5.381 25.412,-12.199 8.688,-8.282 17.434,-20.737 31.408,-15.869 13.824,4.816 12.691,13.115 6.716,20.943 C 73.207,-10.103 62.39,-2.745 56.846,0.187 42.583,7.731 24.109,19.599 7.712,10.891 5.108,9.508 2.723,7.558 1.317,4.965 0.315,3.116 -0.075,1.469 0,0 Z" />
      </g>
      <g
         transform="translate(109.9897,332.6479)"
         id="g114"
         style="stroke:#ffffff;stroke-opacity:0.35294119">
        <path
           inkscape:connector-curvature="0"
           id="path116"
           style="fill:none;stroke:#ffffff;stroke-width:1;stroke-linecap:butt;stroke-linejoin:miter;stroke-miterlimit:10;stroke-dasharray:none;stroke-opacity:0.35294119"
           d="m 0,0 c 3.03,-34.367 29.777,-64.451 61.692,-75.868 39.141,-14.001 78.706,11.124 105.179,38.776 16.461,17.195 29.491,38.603 37.907,60.863 8.65,22.879 30.791,67.084 10.155,89.018 -19.888,21.137 -63.715,6.563 -87.406,0.716 C 74.289,100.365 -5.003,67.911 -0.087,1.076 -0.061,0.717 -0.032,0.358 0,0 Z" />
      </g>
      <g
         transform="translate(308.3945,432.7109)"
         id="g118"
         style="stroke:#ffffff;stroke-opacity:0.35294119">
        <path
           inkscape:connector-curvature="0"
           id="path120"
           style="fill:none;stroke:#ffffff;stroke-width:1;stroke-linecap:butt;stroke-linejoin:miter;stroke-miterlimit:10;stroke-dasharray:none;stroke-opacity:0.35294119"
           d="m 0,0 c -16.88,17.151 -52.695,5.624 -72.488,0.737 -44.277,-10.931 -109.102,-38.212 -106.307,-92.981 0.015,-0.296 0.03,-0.592 0.049,-0.888 1.256,-20.123 12.131,-38.597 27.523,-51.307 6.306,-5.206 13.399,-9.387 20.932,-12.391 10.219,-4.074 20.949,-4.687 31.248,-2.815 22.392,4.072 43.27,18.977 59.038,34.997 13.89,14.112 25.102,31.983 32.484,50.509 C 0.194,-54.778 18.105,-18.397 0,0 Z" />
      </g>
      <g
         transform="translate(291.8657,419.9844)"
         id="g122"
         style="stroke:#ffffff;stroke-opacity:0.35294119">
        <path
           inkscape:connector-curvature="0"
           id="path124"
           style="fill:none;stroke:#ffffff;stroke-width:1;stroke-linecap:butt;stroke-linejoin:miter;stroke-miterlimit:10;stroke-dasharray:none;stroke-opacity:0.35294119"
           d="m 0,0 c -13.842,13.183 -41.675,4.686 -57.569,0.759 -35.315,-8.722 -85.689,-30.842 -85,-73.533 0.003,-0.234 0.005,-0.467 0.01,-0.701 0.362,-15.866 8.028,-30.589 19.413,-41.075 4.664,-4.293 10.014,-7.775 15.806,-10.452 8.113,-3.752 17.195,-4.435 25.799,-2.902 18.709,3.334 36.18,15.394 49.593,28.488 11.307,11.039 20.723,25.364 27.062,40.156 C 1.902,-43.417 15.597,-14.855 0,0 Z" />
      </g>
      <g
         transform="translate(275.3369,407.2578)"
         id="g126"
         style="stroke:#ffffff;stroke-opacity:0.35294119">
        <path
           inkscape:connector-curvature="0"
           id="path128"
           style="fill:none;stroke:#ffffff;stroke-width:1;stroke-linecap:butt;stroke-linejoin:miter;stroke-miterlimit:10;stroke-dasharray:none;stroke-opacity:0.35294119"
           d="m 0,0 c -10.753,9.249 -30.655,3.747 -42.65,0.781 -26.353,-6.513 -62.31,-23.49 -63.694,-54.086 -0.008,-0.171 -0.019,-0.341 -0.027,-0.512 -0.533,-11.609 3.924,-22.582 11.302,-30.844 3.023,-3.381 6.63,-6.188 10.679,-8.514 6.016,-3.456 13.441,-4.183 20.351,-2.989 15.028,2.598 29.073,11.824 40.148,21.981 8.703,7.982 16.362,18.739 21.639,29.802 C 3.626,-32.059 13.132,-11.295 0,0 Z" />
      </g>
      <g
         transform="translate(258.8081,394.5317)"
         id="g130"
         style="stroke:#ffffff;stroke-opacity:0.35294119">
        <path
           inkscape:connector-curvature="0"
           id="path132"
           style="fill:none;stroke:#ffffff;stroke-width:1;stroke-linecap:butt;stroke-linejoin:miter;stroke-miterlimit:10;stroke-dasharray:none;stroke-opacity:0.35294119"
           d="m 0,0 c -7.573,5.396 -19.635,2.808 -27.732,0.803 -17.391,-4.305 -39.035,-16.175 -42.386,-34.638 -0.02,-0.109 -0.044,-0.217 -0.066,-0.325 -1.426,-7.352 -0.179,-14.575 3.192,-20.613 1.382,-2.469 3.232,-4.658 5.553,-6.575 3.91,-3.231 9.687,-3.931 14.903,-3.076 11.345,1.861 21.923,8.288 30.702,15.474 6.06,4.96 12.036,12.102 16.217,19.448 C 5.385,-20.712 10.757,-7.666 0,0 Z" />
      </g>
      <g
         transform="translate(208.3862,367.4399)"
         id="g134"
         style="stroke:#ffffff;stroke-opacity:0.35294119">
        <path
           inkscape:connector-curvature="0"
           id="path136"
           style="fill:none;stroke:#ffffff;stroke-width:1;stroke-linecap:butt;stroke-linejoin:miter;stroke-miterlimit:10;stroke-dasharray:none;stroke-opacity:0.35294119"
           d="m 0,0 c -2.366,-3.13 -4.376,-6.648 -5.022,-10.519 -0.26,-1.557 -0.278,-3.224 0.426,-4.637 1.588,-3.186 5.933,-3.679 9.455,-3.162 7.663,1.124 14.65,4.926 21.257,8.966 8.048,4.92 22.51,17.521 7.777,23.717 C 21.104,19.744 7.317,9.68 0,0 Z" />
      </g>
      <g
         transform="translate(542.3408,493.8701)"
         id="g138"
         style="stroke:#ffffff;stroke-opacity:0.35294119">
        <path
           inkscape:connector-curvature="0"
           id="path140"
           style="fill:none;stroke:#ffffff;stroke-width:1;stroke-linecap:butt;stroke-linejoin:miter;stroke-miterlimit:10;stroke-dasharray:none;stroke-opacity:0.35294119"
           d="m 0,0 c -7.173,-10.189 -10.55,-22.12 -6.872,-35.648 5.791,-21.303 24.5,-35.919 42.751,-46.478 28.225,-16.329 63.437,-23.304 64.976,-62.566 0.777,-19.8 -9.931,-37.581 -13.002,-56.719 -2.979,-18.563 4.482,-35.703 19.014,-47.594 37.65,-30.805 99.598,-40.374 129.475,5.33 16.557,25.328 20.59,56.014 28.029,84.722 8.241,31.802 14.468,64.395 14.838,97.369 0.385,34.216 -9.19,68.47 -37.885,89.559 C 216.323,46.348 183.016,49.839 152.962,50.571 119.989,51.375 86.216,47.596 54.924,36.665 36.601,30.263 12.52,17.784 0,0 Z" />
      </g>
      <g
         transform="translate(566.3604,484.0278)"
         id="g142"
         style="stroke:#ffffff;stroke-opacity:0.35294119">
        <path
           inkscape:connector-curvature="0"
           id="path144"
           style="fill:none;stroke:#ffffff;stroke-width:1;stroke-linecap:butt;stroke-linejoin:miter;stroke-miterlimit:10;stroke-dasharray:none;stroke-opacity:0.35294119"
           d="m 0,0 c -6.229,-9.104 -9.114,-19.658 -5.892,-31.554 5.097,-18.821 21.481,-31.813 37.502,-41.321 21.041,-12.459 46.464,-19.101 54.473,-42.078 1.407,-4.037 2.275,-8.573 2.495,-13.725 0.617,-14.432 -5.557,-27.702 -9.188,-41.412 -0.767,-2.895 -1.419,-5.81 -1.871,-8.761 -2.514,-16.395 3.993,-31.57 16.754,-42.13 32.636,-26.843 86.364,-35.167 112.491,4.324 4.466,6.752 7.9,13.973 10.697,21.448 6.405,17.121 9.566,35.622 14.094,53.341 7.182,28.065 12.538,56.89 12.753,86.022 0.223,30.223 -8.219,60.462 -33.202,79.288 -21.809,16.489 -50.886,20.1 -77.343,21.121 C 104.825,45.633 75.15,42.323 47.8,32.566 31.743,26.823 10.838,15.734 0,0 Z" />
      </g>
      <g
         transform="translate(590.3799,474.1855)"
         id="g146"
         style="stroke:#ffffff;stroke-opacity:0.35294119">
        <path
           inkscape:connector-curvature="0"
           id="path148"
           style="fill:none;stroke:#ffffff;stroke-width:1;stroke-linecap:butt;stroke-linejoin:miter;stroke-miterlimit:10;stroke-dasharray:none;stroke-opacity:0.35294119"
           d="m 0,0 c -5.312,-7.999 -7.679,-17.196 -4.91,-27.46 4.401,-16.338 18.459,-27.706 32.252,-36.164 18.062,-11.022 39.828,-17.184 46.764,-37.126 1.225,-3.521 1.986,-7.459 2.195,-11.914 0.595,-12.517 -4.567,-24.084 -7.574,-36.008 -0.636,-2.518 -1.174,-5.054 -1.541,-7.619 -2.049,-14.226 3.471,-27.474 14.495,-36.667 27.544,-22.971 73.134,-29.962 95.504,3.319 3.912,5.821 6.909,12.087 9.34,18.573 5.548,14.802 8.342,30.844 12.213,46.283 6.125,24.329 10.609,49.385 10.667,74.676 0.063,26.231 -7.247,52.452 -28.515,69.017 C 162.271,33.515 137.424,37.245 114.563,38.555 89.662,39.892 64.085,37.049 40.675,28.467 26.886,23.384 9.109,13.715 0,0 Z" />
      </g>
      <g
         transform="translate(614.3994,464.3433)"
         id="g150"
         style="stroke:#ffffff;stroke-opacity:0.35294119">
        <path
           inkscape:connector-curvature="0"
           id="path152"
           style="fill:none;stroke:#ffffff;stroke-width:1;stroke-linecap:butt;stroke-linejoin:miter;stroke-miterlimit:10;stroke-dasharray:none;stroke-opacity:0.35294119"
           d="m 0,0 c -4.381,-6.906 -6.243,-14.734 -3.929,-23.366 3.706,-13.855 15.439,-23.6 27.001,-31.006 15.084,-9.585 33.193,-15.268 39.059,-32.175 1.041,-3.004 1.693,-6.346 1.891,-10.102 0.573,-10.602 -3.575,-20.466 -5.959,-30.605 -0.504,-2.141 -0.928,-4.297 -1.211,-6.477 -1.583,-12.058 2.967,-23.357 12.235,-31.203 22.496,-19.046 59.919,-24.764 78.518,2.314 3.359,4.889 5.919,10.2 7.985,15.697 4.69,12.484 7.116,26.067 10.333,39.225 5.065,20.593 8.678,41.879 8.58,63.329 -0.099,22.239 -6.316,44.392 -23.83,58.746 -15.466,12.676 -36.04,16.63 -55.309,18.17 C 74.504,34.214 53.021,31.776 33.55,24.369 22.029,19.944 7.408,11.677 0,0 Z" />
      </g>
      <g
         transform="translate(638.4189,454.501)"
         id="g154"
         style="stroke:#ffffff;stroke-opacity:0.35294119">
        <path
           inkscape:connector-curvature="0"
           id="path156"
           style="fill:none;stroke:#ffffff;stroke-width:1;stroke-linecap:butt;stroke-linejoin:miter;stroke-miterlimit:10;stroke-dasharray:none;stroke-opacity:0.35294119"
           d="m 0,0 c -3.447,-5.816 -4.808,-12.271 -2.947,-19.272 3.01,-11.372 12.4,-19.519 21.751,-25.849 12.083,-8.18 26.555,-13.351 31.35,-27.224 0.859,-2.486 1.403,-5.231 1.591,-8.29 0.55,-8.686 -2.585,-16.848 -4.347,-25.202 -0.372,-1.763 -0.681,-3.54 -0.88,-5.335 -1.119,-9.888 2.464,-19.237 9.975,-25.739 17.456,-15.11 46.723,-19.575 61.533,1.309 2.807,3.957 4.928,8.314 6.628,12.821 3.833,10.166 5.892,21.291 8.452,32.168 4.007,16.856 6.748,34.373 6.496,51.983 -0.26,18.246 -5.357,36.372 -19.146,48.475 C 108.171,20.627 91.841,24.724 76.166,26.539 59.344,28.487 41.939,26.541 26.425,20.27 17.163,16.527 5.711,9.634 0,0 Z" />
      </g>
      <g
         transform="translate(662.4385,444.6582)"
         id="g158"
         style="stroke:#ffffff;stroke-opacity:0.35294119">
        <path
           inkscape:connector-curvature="0"
           id="path160"
           style="fill:none;stroke:#ffffff;stroke-width:1;stroke-linecap:butt;stroke-linejoin:miter;stroke-miterlimit:10;stroke-dasharray:none;stroke-opacity:0.35294119"
           d="m 0,0 c -2.51,-4.729 -3.372,-9.809 -1.967,-15.177 2.318,-8.89 9.378,-15.414 16.501,-20.692 9.103,-6.744 19.921,-11.435 23.644,-22.272 0.676,-1.97 1.112,-4.118 1.29,-6.479 0.526,-6.771 -1.595,-13.231 -2.734,-19.798 -0.24,-1.387 -0.434,-2.784 -0.55,-4.193 -0.653,-7.72 1.964,-15.113 7.715,-20.276 12.429,-11.156 33.562,-14.405 44.549,0.304 2.258,3.024 3.936,6.428 5.271,9.946 2.975,7.847 4.666,16.513 6.571,25.11 2.949,13.119 4.819,26.867 4.409,40.636 -0.421,14.253 -4.391,28.362 -14.461,38.204 C 81.137,14.209 69.05,18.433 56.967,20.531 44.186,22.751 30.872,21.271 19.3,16.172 12.304,13.09 4.023,7.583 0,0 Z" />
      </g>
      <g
         transform="translate(686.458,434.8159)"
         id="g162"
         style="stroke:#ffffff;stroke-opacity:0.35294119">
        <path
           inkscape:connector-curvature="0"
           id="path164"
           style="fill:none;stroke:#ffffff;stroke-width:1;stroke-linecap:butt;stroke-linejoin:miter;stroke-miterlimit:10;stroke-dasharray:none;stroke-opacity:0.35294119"
           d="m 0,0 c -1.56,-3.652 -1.937,-7.347 -0.985,-11.083 1.622,-6.407 6.358,-11.302 11.251,-15.535 6.125,-5.299 13.284,-9.518 15.935,-17.32 0.493,-1.453 0.821,-3.004 0.989,-4.668 0.504,-4.855 -0.604,-9.612 -1.12,-14.394 -0.108,-1.01 -0.188,-2.028 -0.22,-3.052 -0.188,-5.55 1.474,-10.974 5.456,-14.811 7.433,-7.163 20.477,-9.283 27.563,-0.702 1.722,2.086 2.944,4.542 3.914,7.07 2.119,5.529 3.442,11.736 4.692,18.053 1.889,9.383 2.888,19.362 2.323,29.29 -0.583,10.26 -3.415,20.367 -9.777,27.933 C 54.114,7.806 46.259,12.123 37.768,14.523 29.026,16.994 19.808,15.991 12.175,12.073 7.446,9.647 2.356,5.518 0,0 Z" />
      </g>
      <g
         transform="translate(724.7021,395.2383)"
         id="g166"
         style="stroke:#ffffff;stroke-opacity:0.35294119">
        <path
           inkscape:connector-curvature="0"
           id="path168"
           style="fill:none;stroke:#ffffff;stroke-width:1;stroke-linecap:butt;stroke-linejoin:miter;stroke-miterlimit:10;stroke-dasharray:none;stroke-opacity:0.35294119"
           d="m 0,0 c 1.254,-3.782 1.039,-7.866 1.182,-11.848 0.143,-3.982 0.759,-8.192 3.306,-11.256 2.546,-3.065 7.586,-4.339 10.577,-1.707 1.243,1.092 1.954,2.655 2.558,4.195 C 24.258,-3.729 22.401,28.047 4.344,38.25 -3.5,42.683 -12.337,38.374 -14.225,29.735 -17.107,16.543 -3.605,10.881 0,0 Z" />
      </g>
      <g
         transform="translate(214.1963,243.8682)"
         id="g170"
         style="stroke:#ffffff;stroke-opacity:0.35294119">
        <path
           inkscape:connector-curvature="0"
           id="path172"
           style="fill:none;stroke:#ffffff;stroke-width:1;stroke-linecap:butt;stroke-linejoin:miter;stroke-miterlimit:10;stroke-dasharray:none;stroke-opacity:0.35294119"
           d="m 0,0 c -4.495,-1.067 -8.859,-2.767 -12.818,-4.709 -4.236,-2.078 -8.175,-5.297 -9.812,-9.722 -3.357,-9.072 3.935,-18.617 9.198,-25.322 1.065,-1.356 2.192,-2.718 3.674,-3.601 4.487,-2.677 8.799,1.471 11.385,4.816 5.854,7.568 10.691,15.743 16.573,23.269 C 30.909,0.996 12.184,2.893 0,0 Z" />
      </g>
      <g
         transform="translate(207.7866,226.1572)"
         id="g174"
         style="stroke:#ffffff;stroke-opacity:0.35294119">
        <path
           inkscape:connector-curvature="0"
           id="path176"
           style="fill:none;stroke:#ffffff;stroke-width:1;stroke-linecap:butt;stroke-linejoin:miter;stroke-miterlimit:10;stroke-dasharray:none;stroke-opacity:0.35294119"
           d="m 0,0 c -0.88,-1.713 -0.875,-3.936 0.288,-5.471 0.656,-0.866 1.769,-1.491 2.822,-1.223 1.219,0.31 1.855,1.598 2.553,2.644 1.348,2.022 7.275,5.853 3.226,7.977 C 5.918,5.484 1.364,2.653 0,0 Z" />
      </g>
      <g
         transform="translate(279.6494,506.6226)"
         id="g178"
         style="stroke:#ffffff;stroke-opacity:0.35294119">
        <path
           inkscape:connector-curvature="0"
           id="path180"
           style="fill:none;stroke:#ffffff;stroke-width:1;stroke-linecap:butt;stroke-linejoin:miter;stroke-miterlimit:10;stroke-dasharray:none;stroke-opacity:0.35294119"
           d="m 0,0 c 19.151,-14.494 42.476,-24.922 56.974,-44.775 7.015,-9.606 8.931,-19.853 12.858,-30.729 3.46,-9.584 9.345,-17.65 20.674,-15.687 16.68,2.89 30.475,14.254 46.7,18.798 15.909,4.456 32.817,4.905 48.934,1.28 11.991,-2.697 28.734,-9.115 39.346,0.455 5.005,4.513 6.363,11.787 6.603,18.522 0.839,23.458 9.984,38.966 22.432,58.43 3.467,5.423 6.765,11.771 5.213,18.018" />
      </g>
      <g
         transform="translate(308.2954,507.6782)"
         id="g182"
         style="stroke:#ffffff;stroke-opacity:0.35294119">
        <path
           inkscape:connector-curvature="0"
           id="path184"
           style="fill:none;stroke:#ffffff;stroke-width:1;stroke-linecap:butt;stroke-linejoin:miter;stroke-miterlimit:10;stroke-dasharray:none;stroke-opacity:0.35294119"
           d="m 0,0 c 15.899,-12.071 34.541,-21.5 45.58,-38.445 5.957,-9.144 7.569,-19.553 12.177,-29.101 3.52,-7.293 8.127,-13.66 17.235,-12.22 13.506,2.114 24.922,10.873 38.136,14.675 12.908,3.707 26.532,4.459 39.497,2.352 9.796,-1.592 23.074,-5.799 31.641,1.808 4.37,3.879 5.935,9.814 6.571,15.372 2.252,19.398 9.72,33.026 19.125,50.104 2.62,4.729 5.074,10.186 3.861,15.607" />
      </g>
      <g
         transform="translate(336.9409,508.7339)"
         id="g186"
         style="stroke:#ffffff;stroke-opacity:0.35294119">
        <path
           inkscape:connector-curvature="0"
           id="path188"
           style="fill:none;stroke:#ffffff;stroke-width:1;stroke-linecap:butt;stroke-linejoin:miter;stroke-miterlimit:10;stroke-dasharray:none;stroke-opacity:0.35294119"
           d="m 0,0 c 12.646,-9.647 26.456,-18.22 34.185,-32.114 4.862,-8.739 6.023,-19.173 11.499,-27.474 3.326,-5.044 6.909,-9.669 13.793,-8.753 10.333,1.338 19.368,7.493 29.575,10.551 9.905,2.959 20.262,4.035 30.06,3.425 7.614,-0.473 17.421,-2.492 23.934,3.16 3.738,3.243 5.507,7.842 6.539,12.223 3.667,15.337 9.42,27.102 15.82,41.778 1.761,4.039 3.38,8.601 2.507,13.197" />
      </g>
      <g
         transform="translate(365.5869,509.7896)"
         id="g190"
         style="stroke:#ffffff;stroke-opacity:0.35294119">
        <path
           inkscape:connector-curvature="0"
           id="path192"
           style="fill:none;stroke:#ffffff;stroke-width:1;stroke-linecap:butt;stroke-linejoin:miter;stroke-miterlimit:10;stroke-dasharray:none;stroke-opacity:0.35294119"
           d="m 0,0 c 9.394,-7.224 18.145,-15.092 22.79,-25.784 3.656,-8.414 4.114,-18.901 10.819,-25.846 2.829,-2.931 5.691,-5.666 10.354,-5.287 7.158,0.583 13.813,4.114 21.012,6.428 6.902,2.211 14.017,3.67 20.623,4.499 5.452,0.684 11.783,0.797 16.227,4.511 3.113,2.601 5.08,5.87 6.509,9.073 5.081,11.278 9.155,21.158 12.513,33.453 0.913,3.344 1.687,7.017 1.153,10.786" />
      </g>
      <g
         transform="translate(394.2324,510.8452)"
         id="g194"
         style="stroke:#ffffff;stroke-opacity:0.35294119">
        <path
           inkscape:connector-curvature="0"
           id="path196"
           style="fill:none;stroke:#ffffff;stroke-width:1;stroke-linecap:butt;stroke-linejoin:miter;stroke-miterlimit:10;stroke-dasharray:none;stroke-opacity:0.35294119"
           d="m 0,0 c 6.142,-4.801 9.496,-12.062 11.396,-19.453 2.106,-8.194 1.496,-19.682 10.139,-24.219 11.955,-6.274 29.889,4.852 39.07,11.92 13.82,10.638 16.62,22.356 15.484,39.426" />
      </g>
      <g
         transform="translate(775.5869,206.0889)"
         id="g198"
         style="stroke:#ffffff;stroke-opacity:0.35294119">
        <path
           inkscape:connector-curvature="0"
           id="path200"
           style="fill:none;stroke:#ffffff;stroke-width:1;stroke-linecap:butt;stroke-linejoin:miter;stroke-miterlimit:10;stroke-dasharray:none;stroke-opacity:0.35294119"
           d="m 0,0 c -9.195,-5.811 -19.549,-9.778 -30.271,-11.602 -9.129,-1.552 -19.132,-1.812 -26.346,-7.618 -7.221,-5.809 -9.693,-15.924 -8.958,-25.162 0.735,-9.239 4.155,-18.013 6.763,-26.905 5.046,-17.2 7.112,-35.269 6.079,-53.163 -0.649,-11.232 -2.505,-22.402 -2.383,-33.651 0.229,-20.932 7.557,-41.723 20.506,-58.172 4.14,-5.261 9.195,-10.303 15.687,-11.939 6.491,-1.637 14.546,1.441 16.307,7.9" />
      </g>
      <g
         transform="translate(763.6777,170.7393)"
         id="g202"
         style="stroke:#ffffff;stroke-opacity:0.35294119">
        <path
           inkscape:connector-curvature="0"
           id="path204"
           style="fill:none;stroke:#ffffff;stroke-width:1;stroke-linecap:butt;stroke-linejoin:miter;stroke-miterlimit:10;stroke-dasharray:none;stroke-opacity:0.35294119"
           d="m 0,0 c -8.025,1.521 -17.368,2.701 -23.426,-2.777 -7.437,-6.727 -5.105,-18.672 -2.764,-28.424 4.664,-19.433 6.932,-39.44 6.738,-59.423 -0.201,-20.696 -2.261,-43.855 11.228,-59.554 6.581,-7.659 18.966,-12.141 26.684,-5.629" />
      </g>
      <g
         transform="translate(244.4829,510.2231)"
         id="g206"
         style="stroke:#ffffff;stroke-opacity:0.35294119">
        <path
           inkscape:connector-curvature="0"
           id="path208"
           style="fill:none;stroke:#ffffff;stroke-width:1;stroke-linecap:butt;stroke-linejoin:miter;stroke-miterlimit:10;stroke-dasharray:none;stroke-opacity:0.35294119"
           d="m 0,0 c 9.621,-6.844 9.119,-22.281 1.941,-31.656 -7.178,-9.375 -18.797,-14.05 -29.989,-17.814 -24.46,-8.228 -49.865,-14.214 -72.818,-26.01 -22.953,-11.796 -43.829,-30.696 -50.653,-55.585 -4.053,-14.785 -2.925,-30.726 -7.905,-45.225 -5.097,-14.838 -16.398,-27.076 -29.858,-35.138 -13.459,-8.062 -28.975,-12.205 -44.556,-14.043 -11.864,-1.399 -24.074,-1.489 -35.551,1.825 -11.476,3.313 -22.212,10.335 -28.206,20.668" />
      </g>
      <g
         transform="translate(-47.7046,331.3975)"
         id="g210"
         style="stroke:#ffffff;stroke-opacity:0.35294119">
        <path
           inkscape:connector-curvature="0"
           id="path212"
           style="fill:none;stroke:#ffffff;stroke-width:1;stroke-linecap:butt;stroke-linejoin:miter;stroke-miterlimit:10;stroke-dasharray:none;stroke-opacity:0.35294119"
           d="m 0,0 c 5.328,-9.123 14.792,-15.343 24.925,-18.315 10.133,-2.973 20.928,-2.96 31.422,-1.75 13.783,1.588 27.502,5.279 39.367,12.468 11.916,7.232 21.837,18.161 26.428,31.331 2.791,8.01 3.548,16.503 4.635,24.919 0.661,5.1 1.443,10.173 2.867,15.097 6.353,21.97 24.933,38.664 45.374,49.046 1.382,0.702 2.775,1.381 4.177,2.037 17.88,8.377 37.347,13.327 55.763,19.869 1.486,0.527 2.964,1.063 4.433,1.609 8.877,3.299 17.887,7.283 23.88,14.371 0.524,0.62 1.025,1.263 1.501,1.933 5.92,8.321 6.042,21.768 -2.508,27.844" />
      </g>
      <g
         transform="translate(-42.2974,355.5498)"
         id="g214"
         style="stroke:#ffffff;stroke-opacity:0.35294119">
        <path
           inkscape:connector-curvature="0"
           id="path216"
           style="fill:none;stroke:#ffffff;stroke-width:1;stroke-linecap:butt;stroke-linejoin:miter;stroke-miterlimit:10;stroke-dasharray:none;stroke-opacity:0.35294119"
           d="m 0,0 c 4.663,-7.913 12.855,-13.331 21.644,-15.963 8.789,-2.632 18.169,-2.695 27.294,-1.675 11.984,1.34 23.907,4.579 34.177,10.894 10.373,6.402 18.914,16.022 22.998,27.524 2.482,6.991 3.262,14.388 4.347,21.7 0.66,4.434 1.433,8.836 2.752,13.106 5.883,19.053 22.166,33.541 40.095,42.508 1.213,0.607 2.434,1.192 3.664,1.759 15.683,7.222 32.887,11.509 48.519,17.73 1.261,0.502 2.51,1.012 3.744,1.531 7.465,3.137 14.831,6.872 19.588,13.1 0.416,0.545 0.812,1.109 1.187,1.694 4.662,7.267 4.403,18.724 -3.077,24.033" />
      </g>
      <g
         transform="translate(-36.8906,379.7021)"
         id="g218"
         style="stroke:#ffffff;stroke-opacity:0.35294119">
        <path
           inkscape:connector-curvature="0"
           id="path220"
           style="fill:none;stroke:#ffffff;stroke-width:1;stroke-linecap:butt;stroke-linejoin:miter;stroke-miterlimit:10;stroke-dasharray:none;stroke-opacity:0.35294119"
           d="m 0,0 c 3.997,-6.702 10.918,-11.319 18.363,-13.61 7.446,-2.291 15.411,-2.431 23.166,-1.6 10.186,1.09 20.313,3.878 28.988,9.32 8.829,5.572 15.99,13.883 19.568,23.716 2.172,5.971 2.977,12.275 4.059,18.482 0.659,3.766 1.423,7.499 2.637,11.115 5.411,16.135 19.399,28.416 34.815,35.969 1.043,0.511 2.093,1.004 3.151,1.479 13.487,6.069 28.429,9.694 41.276,15.594 1.036,0.476 2.055,0.961 3.056,1.453 6.051,2.974 11.774,6.461 15.294,11.83 0.308,0.469 0.6,0.953 0.874,1.453 3.404,6.213 2.764,15.68 -3.645,20.221" />
      </g>
      <g
         transform="translate(-31.4834,403.8545)"
         id="g222"
         style="stroke:#ffffff;stroke-opacity:0.35294119">
        <path
           inkscape:connector-curvature="0"
           id="path224"
           style="fill:none;stroke:#ffffff;stroke-width:1;stroke-linecap:butt;stroke-linejoin:miter;stroke-miterlimit:10;stroke-dasharray:none;stroke-opacity:0.35294119"
           d="m 0,0 c 3.332,-5.492 8.981,-9.307 15.082,-11.257 6.102,-1.951 12.652,-2.166 19.038,-1.526 8.387,0.841 16.727,3.164 23.798,7.746 7.295,4.727 13.066,11.745 16.139,19.909 1.861,4.952 2.691,10.16 3.77,15.264 0.658,3.098 1.413,6.161 2.522,9.124 4.941,13.217 16.632,23.292 29.536,29.43 0.873,0.415 1.752,0.815 2.637,1.2 11.291,4.915 23.971,7.878 34.033,13.457 0.811,0.45 1.6,0.908 2.367,1.374 4.638,2.812 8.718,6.051 11.002,10.559 0.2,0.394 0.387,0.799 0.559,1.214 2.147,5.159 1.126,12.635 -4.212,16.409" />
      </g>
      <g
         transform="translate(-26.0762,428.0068)"
         id="g226"
         style="stroke:#ffffff;stroke-opacity:0.35294119">
        <path
           inkscape:connector-curvature="0"
           id="path228"
           style="fill:none;stroke:#ffffff;stroke-width:1;stroke-linecap:butt;stroke-linejoin:miter;stroke-miterlimit:10;stroke-dasharray:none;stroke-opacity:0.35294119"
           d="m 0,0 c 2.666,-4.282 7.043,-7.295 11.801,-8.905 4.758,-1.609 9.893,-1.901 14.91,-1.451 6.588,0.592 13.133,2.463 18.608,6.172 5.752,3.896 10.142,9.606 12.709,16.101 1.552,3.934 2.406,8.047 3.482,12.047 0.657,2.431 1.404,4.824 2.407,7.133 4.47,10.299 13.865,18.168 24.257,22.891 0.702,0.32 1.411,0.626 2.123,0.921 9.096,3.76 19.513,6.062 26.789,11.32 0.587,0.424 1.147,0.856 1.68,1.295 3.225,2.65 5.66,5.641 6.709,9.289 0.092,0.319 0.174,0.643 0.245,0.974 0.889,4.105 -0.513,9.591 -4.781,12.597" />
      </g>
      <g
         transform="translate(-20.6694,452.1587)"
         id="g230"
         style="stroke:#ffffff;stroke-opacity:0.35294119">
        <path
           inkscape:connector-curvature="0"
           id="path232"
           style="fill:none;stroke:#ffffff;stroke-width:1;stroke-linecap:butt;stroke-linejoin:miter;stroke-miterlimit:10;stroke-dasharray:none;stroke-opacity:0.35294119"
           d="m 0,0 c 2.001,-3.071 5.107,-5.283 8.521,-6.552 3.414,-1.268 7.134,-1.636 10.781,-1.376 4.79,0.343 9.537,1.766 13.419,4.598 4.207,3.069 7.218,7.467 9.279,12.294 1.242,2.914 2.12,5.932 3.194,8.828 0.656,1.764 1.393,3.486 2.291,5.142 4,7.381 11.099,13.044 18.978,16.353 0.533,0.223 1.07,0.437 1.61,0.642 6.899,2.606 15.055,4.245 19.546,9.182 0.362,0.399 0.692,0.805 0.991,1.217 1.812,2.487 2.604,5.23 2.416,8.019 -0.016,0.243 -0.039,0.487 -0.068,0.733 -0.369,3.052 -2.152,6.548 -5.349,8.786" />
      </g>
      <g
         transform="translate(-15.2622,476.311)"
         id="g234"
         style="stroke:#ffffff;stroke-opacity:0.35294119">
        <path
           inkscape:connector-curvature="0"
           id="path236"
           style="fill:none;stroke:#ffffff;stroke-width:1;stroke-linecap:butt;stroke-linejoin:miter;stroke-miterlimit:10;stroke-dasharray:none;stroke-opacity:0.35294119"
           d="m 0,0 c 4.426,-6.168 14.332,-7.387 20.122,-2.477 4.247,3.602 5.897,9.318 8.755,14.097 3.775,6.314 9.943,11.157 16.972,13.327 4.703,1.452 10.596,2.429 12.301,7.046 0.969,2.621 0.086,5.639 -1.573,7.886 -1.66,2.248 -4.001,3.879 -6.299,5.469" />
      </g>
      <g
         transform="translate(70.3809,289.0454)"
         id="g238"
         style="stroke:#ffffff;stroke-opacity:0.35294119">
        <path
           inkscape:connector-curvature="0"
           id="path240"
           style="fill:none;stroke:#ffffff;stroke-width:1;stroke-linecap:butt;stroke-linejoin:miter;stroke-miterlimit:10;stroke-dasharray:none;stroke-opacity:0.35294119"
           d="m 0,0 c -0.274,-0.648 -0.341,-1.287 -0.127,-1.896 0.145,-0.417 0.508,-0.715 0.87,-0.968 3.948,-2.761 9.304,-2.528 13.856,-3.328 4.755,-0.836 9.536,-1.503 14.313,-2.198 2.839,-0.414 8.462,-2.189 10.594,0.614 1.078,1.417 0.738,3.414 0.339,5.149 C 38.368,3.802 36.039,11.789 28.648,13.378 22.565,14.687 16.736,11.103 11.429,8.65 7.403,6.79 1.85,4.376 0,0 Z" />
      </g>
      <g
         transform="translate(360.3066,394.2495)"
         id="g242"
         style="stroke:#ffffff;stroke-opacity:0.35294119">
        <path
           inkscape:connector-curvature="0"
           id="path244"
           style="fill:none;stroke:#ffffff;stroke-width:1;stroke-linecap:butt;stroke-linejoin:miter;stroke-miterlimit:10;stroke-dasharray:none;stroke-opacity:0.35294119"
           d="m 0,0 c 0.831,-5.831 -5.703,-9.77 -8.928,-13.653 -4.42,-5.322 -7.883,-11.396 -10.662,-17.715 -3.243,-7.374 -5.574,-15.097 -7.745,-22.841 -1.461,-5.209 -4.358,-12.623 -11.076,-12.197 -4.108,0.26 -0.863,9.143 0.186,11.731 7.477,18.449 16.926,36.117 20.465,56.146 C -16.089,10.928 -1.39,8.778 -0.015,0.1 -0.01,0.067 -0.005,0.035 0,0 Z" />
      </g>
      <g
         transform="translate(390.8232,121.5742)"
         id="g246"
         style="stroke:#ffffff;stroke-opacity:0.35294119">
        <path
           inkscape:connector-curvature="0"
           id="path248"
           style="fill:none;stroke:#ffffff;stroke-width:1;stroke-linecap:butt;stroke-linejoin:miter;stroke-miterlimit:10;stroke-dasharray:none;stroke-opacity:0.35294119"
           d="m 0,0 c -0.702,-0.711 -1.396,-1.388 -2.081,-2.014 -11.037,-10.092 -23.579,-16.533 -36.92,-22.97 -1.77,-0.855 -3.561,-1.757 -4.96,-3.138 -2.454,-2.421 -2.497,-5.971 -2.227,-9.193 0.258,-3.08 0.724,-6.142 1.392,-9.16 0.94,-4.246 2.818,-8.975 6.954,-10.32 4.855,-1.579 9.575,2.359 13.442,5.694 19.161,16.529 36.674,34.281 47.595,57.667 0.813,1.741 1.548,3.562 1.671,5.478 0.062,0.971 -0.07,2.031 -0.739,2.736 -0.782,0.825 -2.062,0.926 -3.19,0.781 C 12.605,14.479 5.95,6.017 0,0 Z" />
      </g>
      <g
         transform="translate(602.1602,268.3008)"
         id="g250"
         style="stroke:#ffffff;stroke-opacity:0.35294119">
        <path
           inkscape:connector-curvature="0"
           id="path252"
           style="fill:none;stroke:#ffffff;stroke-width:1;stroke-linecap:butt;stroke-linejoin:miter;stroke-miterlimit:10;stroke-dasharray:none;stroke-opacity:0.35294119"
           d="m 0,0 c -6.312,-5.105 -13.055,-9.551 -19.579,-14.458 -2.818,-2.121 -4.013,-6.11 -1.037,-8.719 1.8,-1.578 4.344,-2 6.737,-1.96 10.609,0.179 19.818,0.601 30.113,-2.92 13.259,-4.535 25.984,-10.818 37.352,-19.04 5.672,-4.101 10.999,-8.685 15.831,-13.753 7.637,-8.008 17.877,-27.145 30.928,-13.662 1.809,1.87 3.101,4.343 3.143,6.945 0.135,8.405 -13.156,11.372 -19.003,14.406 -8.692,4.51 -17.488,8.817 -26.324,13.039 -12.64,6.04 -27.03,11.151 -36.028,22.493 -2.549,3.213 -4.561,6.896 -5.725,10.837 -1.154,3.901 0.125,9.393 -1.795,12.845 C 12.328,10.16 7.658,6.767 5.441,4.704 3.676,3.06 1.856,1.501 0,0 Z" />
      </g>
    </g>
  </g>
</svg>
