<?xml version="1.0" encoding="UTF-8" standalone="no"?>
<svg
   xmlns:dc="http://purl.org/dc/elements/1.1/"
   xmlns:cc="http://creativecommons.org/ns#"
   xmlns:rdf="http://www.w3.org/1999/02/22-rdf-syntax-ns#"
   xmlns:svg="http://www.w3.org/2000/svg"
   xmlns="http://www.w3.org/2000/svg"
   xmlns:sodipodi="http://sodipodi.sourceforge.net/DTD/sodipodi-0.dtd"
   xmlns:inkscape="http://www.inkscape.org/namespaces/inkscape"
   width="375"
   height="375"
   version="1.1"
   id="svg22"
   sodipodi:docname="logo.svg"
   inkscape:version="0.92.4 (5da689c313, 2019-01-14)"
   inkscape:export-filename="C:\Users\apuojas\Pictures\logo.png"
   inkscape:export-xdpi="75.348999"
   inkscape:export-ydpi="75.348999">
  <metadata
     id="metadata28">
    <rdf:RDF>
      <cc:Work
         rdf:about="">
        <dc:format>image/svg+xml</dc:format>
        <dc:type
           rdf:resource="http://purl.org/dc/dcmitype/StillImage" />
        <dc:title></dc:title>
      </cc:Work>
    </rdf:RDF>
  </metadata>
  <defs
     id="defs26">
	

		
		
		
		
	</defs>
  <sodipodi:namedview
     pagecolor="#ffffff"
     bordercolor="#666666"
     borderopacity="1"
     objecttolerance="10"
     gridtolerance="10"
     guidetolerance="10"
     inkscape:pageopacity="0"
     inkscape:pageshadow="2"
     inkscape:window-width="1366"
     inkscape:window-height="705"
     id="namedview24"
     showgrid="false"
     inkscape:zoom="1.0611101"
     inkscape:cx="34.177829"
     inkscape:cy="136.78476"
     inkscape:window-x="1912"
     inkscape:window-y="87"
     inkscape:window-maximized="1"
     inkscape:current-layer="svg22" />
  <g
     id="g1096"
     inkscape:export-filename="C:\Users\apuojas\Pictures\logo.png"
     inkscape:export-xdpi="75.348999"
     inkscape:export-ydpi="75.348999"
     transform="matrix(16.818967,0,0,16.818967,-7.3087765,-3.5012756)">
    <path
       sodipodi:nodetypes="ccccsscsscssccccccccc"
       style="fill:#354052;fill-opacity:1;stroke:none;stroke-width:0.40000001;stroke-miterlimit:4;stroke-dasharray:none;stroke-opacity:1;paint-order:stroke markers fill"
       inkscape:connector-curvature="0"
       id="path20"
       d="m 10.075368,12.471637 c 0.907288,0.350985 1.376302,-1.054989 0.44,-1.319 -0.680418,-0.229761 -1.335773,-0.527954 -1.956,-0.89 1.282,-1.4200004 1.647,-3.1290004 1.719,-4.7100004 h 1.408 c 0.928,0 0.928,-1.392 0,-1.392 H 8.2083675 v -0.696 c 0,-0.927333 -1.391,-0.927333 -1.391,0 v 0.696 h -3.479 c -0.9273329,0 -0.9273329,1.391 0,1.391 H 8.886368 c -0.07,1.422 -0.4,2.801 -1.4970005,3.923 -0.8074064,-0.624599 -1.5096237,-1.3744186 -2.08,-2.221 -0.5240442,-0.7218255 -1.6223521,0.011013 -1.157,0.772 0.58,0.872 1.3,1.651 2.117,2.3300004 -0.492,0.3 -1.071,0.569 -1.759,0.799 -0.910479,0.277177 -0.4543936,1.64336 0.44,1.318 1.019,-0.34 1.838,-0.764 2.51,-1.241 0.8180195,0.518097 1.6961685,0.934504 2.6150005,1.24 z" />
    <g
       style="stroke:#354052;stroke-width:0.2;stroke-miterlimit:4;stroke-dasharray:none;stroke-opacity:1;paint-order:markers fill stroke"
       id="g1074">
      <polygon
         style="fill:#354052;fill-opacity:1;stroke:#354052;stroke-width:3.39882445;stroke-miterlimit:4;stroke-dasharray:none;stroke-opacity:1;paint-order:markers fill stroke"
         points="236.872,214.094 236.872,195.827 154.132,234.262 154.132,249.086 236.872,287.523 236.872,269.254 174.295,241.851 174.295,241.505 "
         id="polygon32"
         transform="matrix(0.05102086,0,0,0.06786639,0.15481815,-0.47135526)" />
      <polygon
         style="fill:#354052;fill-opacity:1;stroke:#354052;stroke-width:3.39882445;stroke-miterlimit:4;stroke-dasharray:none;stroke-opacity:1;paint-order:markers fill stroke"
         points="267.047,294.416 303.93,169.452 286.527,169.452 249.642,294.416 "
         id="polygon34"
         transform="matrix(0.05102086,0,0,0.06786639,0.15481815,-0.47135526)" />
      <polygon
         style="fill:#354052;fill-opacity:1;stroke:#354052;stroke-width:3.39882445;stroke-miterlimit:4;stroke-dasharray:none;stroke-opacity:1;paint-order:markers fill stroke"
         points="396.668,249.605 396.668,233.745 313.938,195.827 313.938,214.094 377.895,241.505 377.895,241.851 313.938,269.254 313.938,287.523 "
         id="polygon36"
         transform="matrix(0.05102086,0,0,0.06786639,0.15481815,-0.47135526)" />
    </g>
    <g
       transform="matrix(0.02845908,0,0,0.02845908,22.698941,5.5118099)"
       id="g42">
</g>
    <g
       transform="matrix(0.02845908,0,0,0.02845908,22.698941,5.5118099)"
       id="g44">
</g>
    <g
       transform="matrix(0.02845908,0,0,0.02845908,22.698941,5.5118099)"
       id="g46">
</g>
    <g
       transform="matrix(0.02845908,0,0,0.02845908,22.698941,5.5118099)"
       id="g48">
</g>
    <g
       transform="matrix(0.02845908,0,0,0.02845908,22.698941,5.5118099)"
       id="g50">
</g>
    <g
       transform="matrix(0.02845908,0,0,0.02845908,22.698941,5.5118099)"
       id="g52">
</g>
    <g
       transform="matrix(0.02845908,0,0,0.02845908,22.698941,5.5118099)"
       id="g54">
</g>
    <g
       transform="matrix(0.02845908,0,0,0.02845908,22.698941,5.5118099)"
       id="g56">
</g>
    <g
       transform="matrix(0.02845908,0,0,0.02845908,22.698941,5.5118099)"
       id="g58">
</g>
    <g
       transform="matrix(0.02845908,0,0,0.02845908,22.698941,5.5118099)"
       id="g60">
</g>
    <g
       transform="matrix(0.02845908,0,0,0.02845908,22.698941,5.5118099)"
       id="g62">
</g>
    <g
       transform="matrix(0.02845908,0,0,0.02845908,22.698941,5.5118099)"
       id="g64">
</g>
    <g
       transform="matrix(0.02845908,0,0,0.02845908,22.698941,5.5118099)"
       id="g66">
</g>
    <g
       transform="matrix(0.02845908,0,0,0.02845908,22.698941,5.5118099)"
       id="g68">
</g>
    <g
       transform="matrix(0.02845908,0,0,0.02845908,22.698941,5.5118099)"
       id="g70">
</g>
  </g>
</svg>
