<?xml version="1.0" encoding="UTF-8" standalone="no"?>
<svg
   xmlns:dc="http://purl.org/dc/elements/1.1/"
   xmlns:cc="http://creativecommons.org/ns#"
   xmlns:rdf="http://www.w3.org/1999/02/22-rdf-syntax-ns#"
   xmlns:svg="http://www.w3.org/2000/svg"
   xmlns="http://www.w3.org/2000/svg"
   xmlns:sodipodi="http://sodipodi.sourceforge.net/DTD/sodipodi-0.dtd"
   xmlns:inkscape="http://www.inkscape.org/namespaces/inkscape"
   width="1088"
   height="687.962"
   viewBox="0 0 1088 687.962"
   version="1.1"
   id="svg160"
   sodipodi:docname="undraw_lightweigth_mountain.svg"
   inkscape:version="0.92.4 (5da689c313, 2019-01-14)">
  <metadata
     id="metadata166">
    <rdf:RDF>
      <cc:Work
         rdf:about="">
        <dc:format>image/svg+xml</dc:format>
        <dc:type
           rdf:resource="http://purl.org/dc/dcmitype/StillImage" />
        <dc:title></dc:title>
      </cc:Work>
    </rdf:RDF>
  </metadata>
  <defs
     id="defs164" />
  <sodipodi:namedview
     pagecolor="#ffffff"
     bordercolor="#666666"
     borderopacity="1"
     objecttolerance="10"
     gridtolerance="10"
     guidetolerance="10"
     inkscape:pageopacity="0"
     inkscape:pageshadow="2"
     inkscape:window-width="1366"
     inkscape:window-height="705"
     id="namedview162"
     showgrid="false"
     inkscape:zoom="0.26102941"
     inkscape:cx="496.11268"
     inkscape:cy="59.377749"
     inkscape:window-x="-8"
     inkscape:window-y="-8"
     inkscape:window-maximized="1"
     inkscape:current-layer="svg160" />
  <path
     id="Path_83"
     data-name="Path 83"
     d="m 961.81,454.442 c -5.27,45.15 -16.22,81.4 -31.25,110.31 -20,38.52 -54.21,54.04 -84.77,70.28 a 193.275,193.275 0 0 1 -27.46,11.94 c -55.61,19.3 -117.85,14.18 -166.74,3.99 A 657.282,657.282 0 0 0 547.5,637.802 q -14.97,-0.675 -29.97,-0.67 c -15.42,0.02 -293.07,5.29 -360.67,-131.57 -16.69,-33.76 -28.13,-75 -32.24,-125.27 -11.63,-142.12 52.29,-235.46 134.74,-296.47 155.97,-115.41 369.76,-110.57 523.43,7.88 102.36,78.9 198.2,198.31 179.02,362.74 z"
     inkscape:connector-curvature="0"
     style="fill:#3f3d56" />
  <path
     id="Path_84"
     data-name="Path 84"
     d="m 930.56,564.752 c -20,38.52 -47.21,64.04 -77.77,80.28 a 193.272,193.272 0 0 1 -27.46,11.94 c -55.61,19.3 -117.85,14.18 -166.74,3.99 A 657.3,657.3 0 0 0 554.5,647.802 q -14.97,-0.675 -29.97,-0.67 -23.13,0.03 -46.25,1.72 c -100.17,7.36 -253.82,-6.43 -321.42,-143.29 l 169.14,-327.6 62.95,161.619 20.09,51.59 55.37,-75.98 28.59,-39.229 130.2,149.27 36.8,-81.27 254.78,207.919 14.21,11.59 z"
     inkscape:connector-curvature="0"
     style="fill:#f2f2f2" />
  <path
     id="Path_85"
     data-name="Path 85"
     d="m 302,282.962 26,-57 36,83 -31,-60 z"
     inkscape:connector-curvature="0"
     style="opacity:0.1" />
  <path
     id="Path_86"
     data-name="Path 86"
     d="m 554.5,647.802 q -14.97,-0.675 -29.97,-0.67 L 409.04,391.172 Z"
     inkscape:connector-curvature="0"
     style="opacity:0.1" />
  <path
     id="Path_87"
     data-name="Path 87"
     d="M 464.411,315.191 493,292.962 l 130,150 -132,-128 z"
     inkscape:connector-curvature="0"
     style="opacity:0.1" />
  <path
     id="Path_88"
     data-name="Path 88"
     d="m 852.79,645.032 a 193.265,193.265 0 0 1 -27.46,11.94 L 623.2,425.232 Z"
     inkscape:connector-curvature="0"
     style="opacity:0.1" />
  <circle
     id="Ellipse_11"
     data-name="Ellipse 11"
     cx="482"
     cy="101.962"
     r="3"
     style="fill:#f2f2f2" />
  <circle
     id="Ellipse_12"
     data-name="Ellipse 12"
     cx="399"
     cy="204.96201"
     r="3"
     style="fill:#f2f2f2" />
  <circle
     id="Ellipse_13"
     data-name="Ellipse 13"
     cx="602"
     cy="222.96201"
     r="2"
     style="fill:#f2f2f2" />
  <circle
     id="Ellipse_14"
     data-name="Ellipse 14"
     cx="182"
     cy="267.96201"
     r="2"
     style="fill:#f2f2f2" />
  <circle
     id="Ellipse_15"
     data-name="Ellipse 15"
     cx="614"
     cy="98.961998"
     r="2"
     style="fill:#f2f2f2" />
  <circle
     id="Ellipse_16"
     data-name="Ellipse 16"
     cx="738"
     cy="194.96201"
     r="2"
     style="fill:#f2f2f2" />
  <circle
     id="Ellipse_17"
     data-name="Ellipse 17"
     cx="860"
     cy="346.96201"
     r="2"
     style="fill:#f2f2f2" />
  <path
     id="Path_89"
     data-name="Path 89"
     d="m 306,121.222 h -2.76 v -2.76 h -1.48 v 2.76 H 299 v 1.478 h 2.76 v 2.759 h 1.48 V 122.7 H 306 Z"
     inkscape:connector-curvature="0"
     style="fill:#f2f2f2" />
  <path
     id="Path_90"
     data-name="Path 90"
     d="m 848,424.222 h -2.76 v -2.76 h -1.48 v 2.76 H 841 v 1.478 h 2.76 v 2.759 h 1.48 V 425.7 H 848 Z"
     inkscape:connector-curvature="0"
     style="fill:#f2f2f2" />
  <path
     id="Path_91"
     data-name="Path 91"
     d="m 1088,613.962 c 0,16.569 -243.557,74 -544,74 -300.443,0 -544,-57.431 -544,-74 0,-16.569 243.557,14 544,14 300.443,0 544,-30.568 544,-14 z"
     inkscape:connector-curvature="0"
     style="fill:#3f3d56" />
  <path
     id="Path_92"
     data-name="Path 92"
     d="m 1088,613.962 c 0,16.569 -243.557,74 -544,74 -300.443,0 -544,-57.431 -544,-74 0,-16.569 243.557,14 544,14 300.443,0 544,-30.568 544,-14 z"
     inkscape:connector-curvature="0"
     style="opacity:0.1" />
  <ellipse
     id="Ellipse_18"
     data-name="Ellipse 18"
     cx="544"
     cy="613.96198"
     rx="544"
     ry="30"
     style="fill:#3f3d56" />
  <path
     id="Path_95"
     data-name="Path 95"
     d="m 137,490.528 c 0,55.343 34.719,100.126 77.626,100.126"
     inkscape:connector-curvature="0"
     style="fill:#3f3d56" />
  <path
     id="Path_96"
     data-name="Path 96"
     d="m 214.626,590.654 c 0,-55.965 38.745,-101.251 86.626,-101.251"
     inkscape:connector-curvature="0"
     style="fill:#6c63ff" />
  <path
     id="Path_97"
     data-name="Path 97"
     d="m 165.125,495.545 c 0,52.57 22.14,95.109 49.5,95.109"
     inkscape:connector-curvature="0"
     style="fill:#6c63ff" />
  <path
     id="Path_98"
     data-name="Path 98"
     d="m 214.626,590.654 c 0,-71.511 44.783,-129.377 100.126,-129.377"
     inkscape:connector-curvature="0"
     style="fill:#3f3d56" />
  <path
     id="Path_99"
     data-name="Path 99"
     d="m 198.3,591.36 c 0,0 11.009,-0.339 14.326,-2.7 3.317,-2.361 16.934,-5.183 17.757,-1.395 0.823,3.788 16.544,18.844 4.115,18.945 -12.429,0.101 -28.879,-1.936 -32.19,-3.953 C 198.997,600.24 198.3,591.36 198.3,591.36 Z"
     inkscape:connector-curvature="0"
     style="fill:#a8a8a8" />
  <path
     id="Path_100"
     data-name="Path 100"
     d="m 234.716,604.89 c -12.429,0.1 -28.879,-1.936 -32.19,-3.953 -2.522,-1.536 -3.527,-7.048 -3.863,-9.591 l -0.368,0.014 c 0,0 0.7,8.879 4.009,10.9 3.309,2.021 19.761,4.053 32.19,3.953 3.588,-0.029 4.827,-1.305 4.759,-3.2 -0.498,1.142 -1.867,1.855 -4.537,1.877 z"
     inkscape:connector-curvature="0"
     style="opacity:0.2" />
  <path
     id="Path_101"
     data-name="Path 101"
     d="m 721.429,527.062 c 0,38.029 23.857,68.8 53.341,68.8"
     inkscape:connector-curvature="0"
     style="fill:#3f3d56" />
  <path
     id="Path_102"
     data-name="Path 102"
     d="m 774.769,595.863 c 0,-38.456 26.623,-69.575 59.525,-69.575"
     inkscape:connector-curvature="0"
     style="fill:#6c63ff" />
  <path
     id="Path_103"
     data-name="Path 103"
     d="m 740.755,530.509 c 0,36.124 15.213,65.354 34.014,65.354"
     inkscape:connector-curvature="0"
     style="fill:#6c63ff" />
  <path
     id="Path_104"
     data-name="Path 104"
     d="m 774.769,595.863 c 0,-49.139 30.773,-88.9 68.8,-88.9"
     inkscape:connector-curvature="0"
     style="fill:#3f3d56" />
  <path
     id="Path_105"
     data-name="Path 105"
     d="m 763.548,596.348 c 0,0 7.565,-0.233 9.844,-1.856 2.279,-1.623 11.636,-3.562 12.2,-0.958 0.564,2.604 11.368,12.949 2.828,13.018 -8.54,0.069 -19.844,-1.33 -22.119,-2.716 -2.275,-1.386 -2.753,-7.488 -2.753,-7.488 z"
     inkscape:connector-curvature="0"
     style="fill:#a8a8a8" />
  <path
     id="Path_106"
     data-name="Path 106"
     d="m 788.574,605.645 c -8.54,0.069 -19.844,-1.33 -22.119,-2.716 -1.733,-1.056 -2.423,-4.843 -2.654,-6.59 l -0.253,0.01 c 0,0 0.479,6.1 2.755,7.487 2.276,1.387 13.579,2.785 22.119,2.716 2.465,-0.02 3.317,-0.9 3.27,-2.2 -0.343,0.788 -1.283,1.278 -3.118,1.293 z"
     inkscape:connector-curvature="0"
     style="opacity:0.2" />
  <path
     id="Path_107"
     data-name="Path 107"
     d="m 893.813,618.699 c 0,0 11.36,-1.729 14.5,-4.591 3.14,-2.862 16.89,-7.488 18.217,-3.667 1.327,3.821 19.494,17.447 6.633,19.107 -12.861,1.66 -30.153,1.609 -33.835,-0.065 -3.682,-1.674 -5.515,-10.784 -5.515,-10.784 z"
     inkscape:connector-curvature="0"
     style="fill:#a8a8a8" />
  <path
     id="Path_108"
     data-name="Path 108"
     d="m 933.228,628.154 c -12.86,1.659 -30.153,1.609 -33.835,-0.065 -2.8,-1.275 -4.535,-6.858 -5.2,-9.45 l -0.379,0.061 c 0,0 1.833,9.109 5.516,10.783 3.683,1.674 20.975,1.725 33.835,0.065 3.712,-0.479 4.836,-1.956 4.529,-3.906 -0.375,1.246 -1.703,2.156 -4.466,2.512 z"
     inkscape:connector-curvature="0"
     style="opacity:0.2" />
  <path
     id="Path_109"
     data-name="Path 109"
     d="m 614.26,617.881 c 0,0 9.587,-1.459 12.237,-3.875 2.65,-2.416 14.255,-6.32 15.374,-3.095 1.119,3.225 16.452,14.725 5.6,16.125 -10.852,1.4 -25.448,1.358 -28.555,-0.055 -3.107,-1.413 -4.656,-9.1 -4.656,-9.1 z"
     inkscape:connector-curvature="0"
     style="fill:#a8a8a8" />
  <path
     id="Path_110"
     data-name="Path 110"
     d="m 647.524,625.856 c -10.853,1.4 -25.448,1.358 -28.555,-0.055 -2.367,-1.076 -3.827,-5.788 -4.39,-7.976 l -0.32,0.051 c 0,0 1.547,7.687 4.655,9.1 3.108,1.413 17.7,1.456 28.555,0.055 3.133,-0.4 4.081,-1.651 3.822,-3.3 -0.314,1.057 -1.435,1.825 -3.767,2.125 z"
     inkscape:connector-curvature="0"
     style="opacity:0.2" />
  <path
     id="Path_111"
     data-name="Path 111"
     d="m 122.389,613.09 c 0,0 7.463,-1.136 9.527,-3.016 2.064,-1.88 11.1,-4.92 11.969,-2.409 0.869,2.511 12.808,11.463 4.358,12.553 -8.45,1.09 -19.811,1.057 -22.23,-0.043 -2.419,-1.1 -3.624,-7.085 -3.624,-7.085 z"
     inkscape:connector-curvature="0"
     style="fill:#a8a8a8" />
  <path
     id="Path_112"
     data-name="Path 112"
     d="m 148.285,619.302 c -8.449,1.09 -19.811,1.057 -22.23,-0.043 -1.842,-0.838 -2.979,-4.506 -3.417,-6.209 l -0.249,0.04 c 0,0 1.2,5.984 3.624,7.085 2.424,1.101 13.781,1.133 22.23,0.043 2.439,-0.315 3.177,-1.285 2.976,-2.566 -0.246,0.818 -1.119,1.416 -2.934,1.65 z"
     inkscape:connector-curvature="0"
     style="opacity:0.2" />
  <path
     id="Path_113"
     data-name="Path 113"
     d="m 383.7,601.318 c 0,30.22 -42.124,20.873 -93.7,20.873 -51.576,0 -93.074,9.347 -93.074,-20.873 0,-30.22 42.118,-36.793 93.694,-36.793 51.576,0 93.08,6.573 93.08,36.793 z"
     inkscape:connector-curvature="0"
     style="opacity:0.1" />
  <path
     id="Path_114"
     data-name="Path 114"
     d="m 383.7,593.881 c 0,30.22 -42.124,20.873 -93.7,20.873 -51.576,0 -93.074,9.347 -93.074,-20.873 0,-30.22 42.114,-36.8 93.69,-36.8 51.576,0 93.084,6.576 93.084,36.8 z"
     inkscape:connector-curvature="0"
     style="fill:#3f3d56" />
  <path
     inkscape:connector-curvature="0"
     id="path4"
     d="m 806.04991,187.1285 c -4.06557,-1.93954 -8.93425,-0.21533 -10.87269,3.85079 -2.84216,5.95943 -6.16171,11.63502 -9.93039,16.99035 -3.75238,-1.89114 -7.98543,-2.84922 -12.63606,-2.84922 -9.2953,0 -18.751,3.76815 -30.14678,8.69447 -0.038,0.0163 -0.0761,0.0331 -0.11419,0.05 -2.06188,0.91022 -3.90245,2.20325 -5.44396,3.77684 -2.67413,0.348 -5.30966,1.10326 -7.76085,2.23479 -20.27457,9.37957 -32.92477,19.79118 -58.19362,23.72625 -7.33782,1.14131 -13.20645,6.40475 -14.95186,13.40872 -1.81936,7.28182 1.11195,14.82843 7.46995,19.21644 5.89798,4.07753 12.32993,7.55858 19.10497,10.33765 3.61155,1.48823 7.66244,2.27992 11.69158,2.27992 0.30776,0 0.61552,-0.004 0.92382,-0.0136 2.2897,1.90038 5.09542,3.23745 8.21161,3.81382 17.26876,3.25974 37.17684,1.46647 52.1037,-5.58643 16.54666,-7.53031 30.79219,-20.74381 38.1311,-35.37324 3.56043,-7.02626 5.37056,-14.18682 5.23571,-20.71065 -0.0821,-3.95411 -0.85912,-7.62437 -2.25817,-10.89445 5.115,-6.89141 9.56228,-14.27055 13.28693,-22.07925 1.93899,-4.06557 0.21477,-8.93371 -3.8508,-10.87324 z m -26.9811,57.21705 c -4.85183,9.68951 -15.36619,21.09453 -30.42898,27.91579 -12.07601,5.74629 -28.66399,6.92132 -42.2554,4.34724 -0.57746,-0.10277 -0.99125,-0.42195 -1.07064,-0.81834 -0.0794,-0.39747 0.18651,-0.80311 0.68023,-1.05323 5.19982,-2.63063 10.02282,-5.61361 14.44998,-8.86791 -7.51671,3.01506 -15.55705,5.23842 -24.00084,6.50317 -0.71774,0.1082 -1.4469,0.16149 -2.17661,0.16149 -1.90582,0 -3.81164,-0.36322 -5.50051,-1.05921 -7.29214,-2.99168 -12.79374,-6.43357 -16.03119,-8.67217 -0.72372,-0.49916 -1.06519,-1.21092 -0.90642,-1.84655 0.15878,-0.63727 0.78625,-1.10271 1.63069,-1.2343 26.32698,-3.50225 45.32375,-17.07735 62.5229,-25.03396 1.36316,-0.62911 2.8329,-0.95318 4.30047,-0.95318 0.69871,0 1.39687,0.0734 2.08254,0.22239 5.43309,1.18808 11.181,1.85798 17.15293,1.93247 -3.73987,-1.53282 -7.35359,-3.24126 -10.82919,-5.11228 -0.36431,-0.19629 -0.5568,-0.59051 -0.50188,-1.01082 0.0549,-0.4214 0.34365,-0.79767 0.75037,-0.97711 9.01091,-3.89537 17.35194,-7.35522 23.67351,-7.35522 2.5284,0 4.73491,0.55408 6.53036,1.85471 4.23631,3.14012 4.91326,11.24081 -0.0723,21.05702 z"
     style="fill:#f2f2f2;fill-opacity:1;stroke:none;stroke-width:0.54374361;stroke-opacity:1" />
  <path
     inkscape:connector-curvature="0"
     id="path4-7"
     d="m 692.14407,412.44877 c -4.06557,-1.93954 -8.93425,-0.21533 -10.87269,3.85079 -2.84216,5.95943 -6.16171,11.63502 -9.93039,16.99035 -3.75238,-1.89114 -7.98543,-2.84922 -12.63606,-2.84922 -9.2953,0 -18.751,3.76815 -30.14678,8.69447 -0.038,0.0163 -0.0761,0.0331 -0.11419,0.05 -2.06188,0.91022 -3.90245,2.20325 -5.44396,3.77684 -2.67413,0.348 -5.30966,1.10326 -7.76085,2.23479 -20.27457,9.37957 -32.92477,19.79118 -58.19362,23.72625 -7.33782,1.14131 -13.20645,6.40475 -14.95186,13.40872 -1.81936,7.28182 1.11195,14.82843 7.46995,19.21644 5.89798,4.07753 12.32993,7.55858 19.10497,10.33765 3.61155,1.48823 7.66244,2.27992 11.69158,2.27992 0.30776,0 0.61552,-0.004 0.92382,-0.0136 2.2897,1.90038 5.09542,3.23745 8.21161,3.81382 17.26876,3.25974 37.17684,1.46647 52.1037,-5.58643 16.54666,-7.53031 30.79219,-20.74381 38.1311,-35.37324 3.56043,-7.02626 5.37056,-14.18682 5.23571,-20.71065 -0.0821,-3.95411 -0.85912,-7.62437 -2.25817,-10.89445 5.115,-6.89141 9.56228,-14.27055 13.28693,-22.07925 1.93899,-4.06557 0.21477,-8.93371 -3.8508,-10.87324 z m -26.9811,57.21705 c -4.85183,9.68951 -15.36619,21.09453 -30.42898,27.91579 -12.07601,5.74629 -28.66399,6.92132 -42.2554,4.34724 -0.57746,-0.10277 -0.99125,-0.42195 -1.07064,-0.81834 -0.0794,-0.39747 0.18651,-0.80311 0.68023,-1.05323 5.19982,-2.63063 10.02282,-5.61361 14.44998,-8.86791 -7.51671,3.01506 -15.55705,5.23842 -24.00084,6.50317 -0.71774,0.1082 -1.4469,0.16149 -2.17661,0.16149 -1.90582,0 -3.81164,-0.36322 -5.50051,-1.05921 -7.29214,-2.99168 -12.79374,-6.43357 -16.03119,-8.67217 -0.72372,-0.49916 -1.06519,-1.21092 -0.90642,-1.84655 0.15878,-0.63727 0.78625,-1.10271 1.63069,-1.2343 26.32698,-3.50225 45.32375,-17.07735 62.5229,-25.03396 1.36316,-0.62911 2.8329,-0.95318 4.30047,-0.95318 0.69871,0 1.39687,0.0734 2.08254,0.22239 5.43309,1.18808 11.181,1.85798 17.15293,1.93247 -3.73987,-1.53282 -7.35359,-3.24126 -10.82919,-5.11228 -0.36431,-0.19629 -0.5568,-0.59051 -0.50188,-1.01082 0.0549,-0.4214 0.34365,-0.79767 0.75037,-0.97711 9.01091,-3.89537 17.35194,-7.35522 23.67351,-7.35522 2.5284,0 4.73491,0.55408 6.53036,1.85471 4.23631,3.14012 4.91326,11.24081 -0.0723,21.05702 z"
     style="fill:#39374e;fill-opacity:1;stroke:none;stroke-width:0.54374361;stroke-opacity:1" />
  <g
     id="g2305"
     transform="matrix(0.9167177,0,0,0.9167177,906.45527,-595.97367)">
    <path
       d="m -385.9155,1299.0417 c 0,33.137 -14.775,24 -33,24 -18.225,0 -33,9.137 -33,-24 0,-33.137 33,-96 33,-96 0,0 33,62.863 33,96 z"
       data-name="Path 93"
       id="Path_93"
       inkscape:connector-curvature="0"
       style="fill:#ff6584" />
    <path
       d="m -403.9155,1311.7207 c 0,15.062 -6.716,10.909 -15,10.909 -8.284,0 -15,4.153 -15,-10.909 0,-15.062 15,-43.636 15,-43.636 0,0 15,28.576 15,43.636 z"
       data-name="Path 94"
       id="Path_94"
       inkscape:connector-curvature="0"
       style="opacity:0.1" />
    <rect
       rx="9"
       height="18"
       width="92"
       data-name="Rectangle 97"
       id="Rectangle_97"
       x="-464.9155"
       y="1332.0417"
       style="fill:#2f2e41" />
    <rect
       rx="9"
       height="18"
       width="92"
       data-name="Rectangle 98"
       id="Rectangle_98"
       x="-464.9155"
       y="1314.0417"
       style="fill:#2f2e41" />
  </g>
  <path
     d="m 391.68681,479.07932 c 7.75269,2.99913 11.76036,-9.01478 3.75976,-11.27072 -5.8141,-1.96329 -11.41405,-4.51132 -16.71382,-7.60496 10.95456,-12.13376 14.07345,-26.73699 14.68868,-40.24648 h 12.03121 c 7.92967,0 7.92967,-11.89449 0,-11.89449 h -29.71916 v -5.94725 c 0,-7.92397 -11.88595,-7.92397 -11.88595,0 v 5.94725 h -29.7277 c -7.92396,0 -7.92396,11.88595 0,11.88595 h 47.4071 c -0.59814,12.15084 -3.41796,23.93426 -12.79172,33.52164 -6.8992,-5.33714 -12.89958,-11.74427 -17.77339,-18.97822 -4.4779,-6.16793 -13.86283,0.0941 -9.88644,6.59666 4.95604,7.45115 11.10837,14.10762 18.08955,19.90961 -4.20409,2.56347 -9.15159,4.86205 -15.03048,6.82738 -7.77995,2.36845 -3.88275,14.04234 3.75976,11.26217 8.70725,-2.90526 15.70552,-6.5283 21.44769,-10.60422 6.98989,4.42709 14.49359,7.98525 22.34491,10.59568 z"
     id="path20"
     inkscape:connector-curvature="0"
     style="fill:#354052;fill-opacity:1;stroke:none;stroke-width:3.41795921;stroke-miterlimit:4;stroke-dasharray:none;stroke-opacity:1;paint-order:stroke markers fill"
     sodipodi:nodetypes="ccccsscsscssccccccccc" />
  <g
     id="g1074"
     style="stroke:#354052;stroke-width:0.2;stroke-miterlimit:4;stroke-dasharray:none;stroke-opacity:1;paint-order:markers fill stroke"
     transform="matrix(8.5448982,0,0,8.5448982,305.59382,372.51045)">
    <polygon
       transform="matrix(0.05102086,0,0,0.06786639,0.15481815,-0.47135526)"
       id="polygon32"
       points="236.872,195.827 154.132,234.262 154.132,249.086 236.872,287.523 236.872,269.254 174.295,241.851 174.295,241.505 236.872,214.094 "
       style="fill:#354052;fill-opacity:1;stroke:#354052;stroke-width:3.39882445;stroke-miterlimit:4;stroke-dasharray:none;stroke-opacity:1;paint-order:markers fill stroke" />
    <polygon
       transform="matrix(0.05102086,0,0,0.06786639,0.15481815,-0.47135526)"
       id="polygon34"
       points="303.93,169.452 286.527,169.452 249.642,294.416 267.047,294.416 "
       style="fill:#354052;fill-opacity:1;stroke:#354052;stroke-width:3.39882445;stroke-miterlimit:4;stroke-dasharray:none;stroke-opacity:1;paint-order:markers fill stroke" />
    <polygon
       transform="matrix(0.05102086,0,0,0.06786639,0.15481815,-0.47135526)"
       id="polygon36"
       points="396.668,233.745 313.938,195.827 313.938,214.094 377.895,241.505 377.895,241.851 313.938,269.254 313.938,287.523 396.668,249.605 "
       style="fill:#354052;fill-opacity:1;stroke:#354052;stroke-width:3.39882445;stroke-miterlimit:4;stroke-dasharray:none;stroke-opacity:1;paint-order:markers fill stroke" />
  </g>
  <g
     id="g42"
     transform="matrix(0.24317994,0,0,0.24317994,499.55396,419.6083)" />
  <g
     id="g44"
     transform="matrix(0.24317994,0,0,0.24317994,499.55396,419.6083)" />
  <g
     id="g46"
     transform="matrix(0.24317994,0,0,0.24317994,499.55396,419.6083)" />
  <g
     id="g48"
     transform="matrix(0.24317994,0,0,0.24317994,499.55396,419.6083)" />
  <g
     id="g50"
     transform="matrix(0.24317994,0,0,0.24317994,499.55396,419.6083)" />
  <g
     id="g52"
     transform="matrix(0.24317994,0,0,0.24317994,499.55396,419.6083)" />
  <g
     id="g54"
     transform="matrix(0.24317994,0,0,0.24317994,499.55396,419.6083)" />
  <g
     id="g56"
     transform="matrix(0.24317994,0,0,0.24317994,499.55396,419.6083)" />
  <g
     id="g58"
     transform="matrix(0.24317994,0,0,0.24317994,499.55396,419.6083)" />
  <g
     id="g60"
     transform="matrix(0.24317994,0,0,0.24317994,499.55396,419.6083)" />
  <g
     id="g62"
     transform="matrix(0.24317994,0,0,0.24317994,499.55396,419.6083)" />
  <g
     id="g64"
     transform="matrix(0.24317994,0,0,0.24317994,499.55396,419.6083)" />
  <g
     id="g66"
     transform="matrix(0.24317994,0,0,0.24317994,499.55396,419.6083)" />
  <g
     id="g68"
     transform="matrix(0.24317994,0,0,0.24317994,499.55396,419.6083)" />
  <g
     id="g70"
     transform="matrix(0.24317994,0,0,0.24317994,499.55396,419.6083)" />
</svg>
