<?xml version="1.0" encoding="UTF-8" standalone="no"?>
<svg
   xmlns:dc="http://purl.org/dc/elements/1.1/"
   xmlns:cc="http://creativecommons.org/ns#"
   xmlns:rdf="http://www.w3.org/1999/02/22-rdf-syntax-ns#"
   xmlns:svg="http://www.w3.org/2000/svg"
   xmlns="http://www.w3.org/2000/svg"
   xmlns:sodipodi="http://sodipodi.sourceforge.net/DTD/sodipodi-0.dtd"
   xmlns:inkscape="http://www.inkscape.org/namespaces/inkscape"
   width="1041.277"
   height="554.141"
   viewBox="0 0 1041.277 554.141"
   version="1.1"
   id="svg158"
   sodipodi:docname="platform-agnostic.svg"
   inkscape:version="0.92.4 (5da689c313, 2019-01-14)">
  <metadata
     id="metadata164">
    <rdf:RDF>
      <cc:Work
         rdf:about="">
        <dc:format>image/svg+xml</dc:format>
        <dc:type
           rdf:resource="http://purl.org/dc/dcmitype/StillImage" />
        <dc:title></dc:title>
      </cc:Work>
    </rdf:RDF>
  </metadata>
  <defs
     id="defs162" />
  <sodipodi:namedview
     pagecolor="#ffffff"
     bordercolor="#666666"
     borderopacity="1"
     objecttolerance="10"
     gridtolerance="10"
     guidetolerance="10"
     inkscape:pageopacity="0"
     inkscape:pageshadow="2"
     inkscape:window-width="1366"
     inkscape:window-height="705"
     id="namedview160"
     showgrid="false"
     inkscape:zoom="0.21482966"
     inkscape:cx="237.56616"
     inkscape:cy="183.5979"
     inkscape:window-x="-8"
     inkscape:window-y="-8"
     inkscape:window-maximized="1"
     inkscape:current-layer="svg158" />
  <g
     transform="matrix(3.7795276,0,0,3.7795276,21.34327,-471.99091)"
     id="g858">
    <path
       style="fill:#f2f2f2;stroke-width:0.26458332"
       inkscape:connector-curvature="0"
       d="m 248.92818,242.86371 q -0.46038,0.99218 -0.91811,1.95791 -0.71437,1.50019 -1.41022,2.94217 c -0.20638,0.42598 -0.41275,0.84402 -0.61384,1.26206 -2.27541,4.64873 -4.40002,8.76036 -6.20448,12.14173 a 19.370146,19.370146 0 0 1 -16.88306,10.23938 l -40.12406,0.43656 h -0.42334 l -3.43958,0.037 -2.94217,0.0317 -9.02229,0.0979 h -0.36512 l -4.59317,0.0503 h -0.14023 l -28.31041,0.30691 -25.27036,0.26459 -2.93952,0.0317 -18.256253,0.19843 h -0.02117 l -11.840104,0.127 h -0.127 l -37.438542,0.40482 -11.199812,0.12171 a 23.280952,23.280952 0 0 1 -2.854854,-0.14288 v 0 c -0.322792,-0.037 -0.645584,-0.0794 -0.96573,-0.12965 A 23.119292,23.119292 0 0 1 9.0542747,265.95643 C 4.2362154,260.65694 0.73048624,254.47362 -1.6243055,247.76379 q -0.5106458,-1.45256 -0.9525,-2.94217 c -8.1518125,-27.55635 1.78593754,-63.10841 19.6717715,-86.89975 q 1.124479,-1.49225 2.286,-2.91041 l 0.01852,-0.0212 c 5.500689,-6.75217 11.668127,-12.39308 18.237731,-16.40417 11.641666,-7.11993 24.540104,-9.12548 37.226875,-3.14854 10.734146,5.05884 20.756564,7.43744 30.472068,8.08302 0.9816,0.0635 1.96321,0.11113 2.93952,0.14023 22.28585,0.70115 43.17206,-7.32896 67.69894,-12.51214 0.97631,-0.20638 1.95527,-0.41011 2.94216,-0.60325 17.4969,-3.48192 36.90673,-5.31813 59.98898,-1.45786 a 50.029798,50.029798 0 0 1 7.08025,1.69334 q 1.52665,0.49212 2.94217,1.05833 c 11.01724,4.48204 17.02592,12.7635 19.57915,23.14046 q 0.36248,1.44462 0.62706,2.93952 c 4.52703,24.96079 -8.73125,60.36733 -20.20621,84.94448 z"
       data-name="Path 299"
       id="Path_299" />
    <path
       style="opacity:0.1;stroke-width:0.26458332"
       inkscape:connector-curvature="0"
       d="m 126.0398,244.82162 a 25.190979,25.190979 0 0 1 -0.49477,2.94217 h 24.79146 v -2.94217 z m -20.70364,16.61848 2.93952,-0.0238 v -7.2681 c -1.00806,-0.045 -1.98967,-0.09 -2.93952,-0.13759 z M 43.709404,244.82162 v 2.94217 h 52.519792 v -2.94217 z M 268.52056,154.99029 h -19.57915 v -23.1484 q -1.41552,-0.57414 -2.94217,-1.05833 v 24.20673 H 178.91678 V 130.5375 c -0.98689,0.19314 -1.96585,0.39687 -2.94216,0.60325 v 23.84954 h -67.69894 v -11.3374 c -0.97631,-0.0291 -1.95792,-0.0767 -2.93952,-0.14022 v 11.47762 H 37.637217 v -16.40417 c -6.569604,4.01109 -12.737042,9.652 -18.23773,16.40417 h -0.01852 v 0.0212 q -1.164167,1.42875 -2.286,2.91042 h 2.286 v 86.89974 H -2.5794513 q 0.4392083,1.48961 0.9525,2.94217 H 19.37832 v 24.77029 a 23.01875,23.01875 0 0 0 3.227918,0.73819 c 0.320145,0.0503 0.642937,0.0926 0.965729,0.12964 v 0 a 23.280952,23.280952 0 0 0 2.854854,0.14288 l 11.199812,-0.12171 V 247.7585 h 67.709527 v 24.92639 l 2.93952,-0.0317 v -24.88935 h 67.69894 v 24.17233 l 2.94216,-0.0317 v -24.14058 h 67.06923 v 1.26206 c 0.20109,-0.41804 0.40746,-0.83608 0.61384,-1.26206 q 0.69585,-1.44198 1.41022,-2.94217 0.45773,-0.96308 0.91811,-1.95791 v -84.93135 h 20.21944 q -0.26723,-1.50548 -0.62706,-2.94217 z M 37.637217,244.82162 v -86.89975 h 67.698943 v 86.89975 z m 70.643753,0 v -86.89975 h 67.69365 v 86.89975 z m 137.71033,0 h -67.07452 v -86.89975 h 67.06923 z"
       data-name="Path 300"
       id="Path_300" />
    <path
       style="fill:#65617d;stroke-width:0.26458332"
       inkscape:connector-curvature="0"
       d="m 222.89582,268.11554 v 3.43958 l -40.1955,0.37042 -0.42862,0.008 -15.27704,0.14023 -0.36513,0.005 -4.64343,0.0397 h -0.13759 l -28.30512,0.26193 -46.463486,0.43127 h -0.03969 l -11.813646,0.11113 -0.127,0.003 -52.493333,0.48155 v -3.96875 l 12.342812,-7.40834 24.765,-0.20637 0.529167,-0.003 0.174625,-0.003 0.529166,-0.008 11.890375,-0.0979 0.531813,-0.003 0.169333,-0.003 0.529167,-0.003 3.812646,-0.0317 0.100541,-0.003 9.405938,-0.0794 h 0.07673 l 73.395422,-0.61912 1.79652,-0.0132 h 0.17992 l 1.37054,-0.0132 9.96156,-0.082 0.52917,-0.008 0.48948,-0.005 h 0.254 l 3.09827,-0.0238 0.61383,-0.008 0.82286,-0.005 2.57968,-0.0238 4.09311,-0.0344 0.52916,-0.005 0.92075,-0.005 h 0.17198 l 19.76702,-0.16934 z"
       data-name="Path 301"
       id="Path_301" />
    <path
       style="opacity:0.2;stroke-width:0.26458332"
       inkscape:connector-curvature="0"
       d="m 222.89582,268.11554 v 3.43958 l -40.1955,0.37042 -0.42862,0.008 -15.27704,0.14023 -0.36513,0.005 -4.64343,0.0397 h -0.13759 l -28.30512,0.26193 -46.463486,0.43127 h -0.03969 l -11.813646,0.11113 -0.127,0.003 -52.493333,0.48155 v -3.96875 l 12.342812,-7.40834 24.765,-0.20637 0.529167,-0.003 0.174625,-0.003 0.529166,-0.008 11.890375,-0.0979 0.531813,-0.003 0.169333,-0.003 0.529167,-0.003 3.812646,-0.0317 0.100541,-0.003 9.405938,-0.0794 h 0.07673 l 73.395422,-0.61912 1.79652,-0.0132 h 0.17992 l 1.37054,-0.0132 9.96156,-0.082 0.52917,-0.008 0.48948,-0.005 h 0.254 l 3.09827,-0.0238 0.61383,-0.008 0.82286,-0.005 2.57968,-0.0238 4.09311,-0.0344 0.52916,-0.005 0.92075,-0.005 h 0.17198 l 19.76702,-0.16934 z"
       data-name="Path 302"
       id="Path_302" />
    <path
       style="fill:#3f3d56;stroke-width:0.26458332"
       inkscape:connector-curvature="0"
       d="m 72.879717,254.88902 v 6.47964 a 1.6218958,1.6218958 0 0 1 -0.926042,1.4658 1.5875,1.5875 0 0 1 -0.661458,0.15875 l -9.233959,0.19579 a 1.5875,1.5875 0 0 1 -0.714375,-0.15081 1.61925,1.61925 0 0 1 -0.944562,-1.47373 v -6.67544 z"
       data-name="Path 303"
       id="Path_303" />
    <path
       style="opacity:0.1;stroke-width:0.26458332"
       inkscape:connector-curvature="0"
       d="m 72.879717,254.88902 v 6.47964 a 1.6218958,1.6218958 0 0 1 -0.926042,1.4658 1.5875,1.5875 0 0 1 -0.661458,0.15875 l -9.233959,0.19579 a 1.5875,1.5875 0 0 1 -0.714375,-0.15081 1.61925,1.61925 0 0 1 -0.944562,-1.47373 v -6.67544 z"
       data-name="Path 304"
       id="Path_304" />
    <path
       style="fill:#3f3d56;stroke-width:0.26458332"
       inkscape:connector-curvature="0"
       d="m 73.408883,254.88902 v 6.47964 a 1.6218958,1.6218958 0 0 1 -0.926041,1.4658 1.5875,1.5875 0 0 1 -0.661459,0.15875 l -9.233958,0.19579 a 1.5875,1.5875 0 0 1 -0.714375,-0.15081 1.61925,1.61925 0 0 1 -0.944562,-1.47373 v -6.67544 z"
       data-name="Path 305"
       id="Path_305" />
    <rect
       style="fill:#3f3d56;stroke-width:0.26458332"
       y="254.88637"
       x="174.69667"
       height="8.3343754"
       width="12.480395"
       data-name="Rectangle 137"
       id="Rectangle_137" />
    <rect
       style="opacity:0.1;stroke-width:0.26458332"
       y="254.88637"
       x="174.69667"
       height="8.3343754"
       width="12.480395"
       data-name="Rectangle 138"
       id="Rectangle_138" />
    <rect
       style="fill:#3f3d56;stroke-width:0.26458332"
       y="254.88637"
       x="174.1675"
       height="8.3343754"
       width="12.480395"
       data-name="Rectangle 139"
       id="Rectangle_139" />
    <path
       style="opacity:0.1;stroke-width:0.26458332"
       inkscape:connector-curvature="0"
       d="m 73.406238,254.88637 v 1.31498 l -12.480396,0.33338 v -1.64836 z"
       data-name="Path 306"
       id="Path_306" />
    <path
       style="fill:#65617d;stroke-width:0.26458332"
       inkscape:connector-curvature="0"
       d="m 95.435446,209.56589 v 44.50292 a 1.0583333,1.0583333 0 0 1 -1.018646,1.0451 l -50.707396,1.34938 h -0.01323 a 1.0583333,1.0583333 0 0 1 -1.045104,-1.0451 v -45.8523 a 1.0583333,1.0583333 0 0 1 1.045104,-1.0451 h 50.694167 a 1.0583333,1.0583333 0 0 1 1.045105,1.0451 z"
       data-name="Path 307"
       id="Path_307" />
    <path
       style="opacity:0.1;stroke-width:0.26458332"
       inkscape:connector-curvature="0"
       d="m 43.709404,208.52079 v 47.9425 h -0.01323 a 1.0583333,1.0583333 0 0 1 -1.045104,-1.0451 v -45.8523 a 1.0583333,1.0583333 0 0 1 1.045104,-1.0451 z"
       data-name="Path 308"
       id="Path_308" />
    <path
       style="fill:#39374d;stroke-width:0.26458332"
       inkscape:connector-curvature="0"
       d="m 46.021863,211.36241 h 46.963541 v 39.22448 l -46.963541,1.05834 z"
       data-name="Path 309"
       id="Path_309" />
    <path
       style="opacity:0.1;stroke-width:0.26458332"
       inkscape:connector-curvature="0"
       d="m 186.64791,254.88637 v 1.69598 l -12.4804,-0.33337 v -1.36261 z"
       data-name="Path 310"
       id="Path_310" />
    <path
       style="fill:#65617d;stroke-width:0.26458332"
       inkscape:connector-curvature="0"
       d="m 203.12087,209.56589 v 45.8523 a 1.0583333,1.0583333 0 0 1 -1.05834,1.0451 v 0 l -50.71798,-1.34938 a 1.0583333,1.0583333 0 0 1 -1.01864,-1.0451 v -44.50292 a 1.0583333,1.0583333 0 0 1 1.0451,-1.0451 h 50.69417 a 1.0583333,1.0583333 0 0 1 1.05569,1.0451 z"
       data-name="Path 311"
       id="Path_311" />
    <path
       style="opacity:0.1;stroke-width:0.26458332"
       inkscape:connector-curvature="0"
       d="m 203.12087,209.56589 v 45.8523 a 1.0583333,1.0583333 0 0 1 -1.05834,1.0451 v 0 -47.9425 0 a 1.0583333,1.0583333 0 0 1 1.05834,1.0451 z"
       data-name="Path 312"
       id="Path_312" />
    <path
       style="fill:#39374d;stroke-width:0.26458332"
       inkscape:connector-curvature="0"
       d="m 199.74478,211.36241 h -46.96354 v 39.22448 l 46.96354,1.05834 z"
       data-name="Path 313"
       id="Path_313" />
    <path
       style="fill:#65617d;stroke-width:0.26458332"
       inkscape:connector-curvature="0"
       d="m 149.01357,209.56589 v 44.50292 a 1.0583333,1.0583333 0 0 1 -1.01864,1.0451 l -50.707404,1.34938 v 0 a 1.0583333,1.0583333 0 0 1 -1.05833,-1.0451 v -45.8523 a 1.0583333,1.0583333 0 0 1 1.0451,-1.0451 h 50.694174 a 1.0583333,1.0583333 0 0 1 1.0451,1.0451 z"
       data-name="Path 314"
       id="Path_314" />
    <path
       style="fill:#4267b2;stroke-width:0.26458332"
       inkscape:connector-curvature="0"
       d="m 99.599986,211.36241 h 46.963544 v 39.22448 l -46.963544,1.05834 z"
       data-name="Path 315"
       id="Path_315" />
    <path
       style="opacity:0.1;stroke-width:0.26458332"
       inkscape:connector-curvature="0"
       d="m 222.89582,268.11554 v 3.43958 l -40.1955,0.37042 -0.42862,0.008 -15.27704,0.14023 -0.36513,0.005 -4.64343,0.0397 h -0.13759 l -28.30512,0.26193 -46.463486,0.43127 h -0.03969 l -11.813646,0.11113 -0.127,0.003 -52.493333,0.48155 v -3.96875 l 53.58077,-0.3519 h 0.127 l 10.845271,-0.0741 h 0.05027 l 74.898254,-0.49477 h 0.0767 l 0.045,-0.003 h 0.12436 l 1.26735,-0.008 h 0.38629 l 19.70881,-0.13229 1.16417,-0.005 0.25929,-0.003 z"
       data-name="Path 316"
       id="Path_316" />
    <circle
       style="fill:#fbbebe;stroke-width:0.26458332"
       r="13.581063"
       cy="205.80617"
       cx="123.45747"
       data-name="Ellipse 111"
       id="Ellipse_111" />
    <path
       style="fill:#fbbebe;stroke-width:0.26458332"
       inkscape:connector-curvature="0"
       d="m 137.04118,226.71089 c 0,0 -26.32604,3.175 -23.8125,0 0.91017,-1.14829 1.16152,-4.55083 1.11125,-8.42698 -0.0159,-1.17739 -0.0582,-2.39712 -0.11906,-3.61156 -0.29105,-5.82083 -0.99219,-11.50937 -0.99219,-11.50937 0,0 23.01875,-10.84792 20.37292,-2.24896 -1.05834,3.47398 -0.71173,8.35289 0.0926,12.93283 0.23548,1.33615 0.508,2.64584 0.79375,3.88938 a 91.191292,91.191292 0 0 0 2.55323,8.97466 z"
       data-name="Path 317"
       id="Path_317" />
    <path
       style="fill:#ff6584;stroke-width:0.26458332"
       inkscape:connector-curvature="0"
       d="m 128.45016,225.63404 c 3.04535,-0.56356 6.27062,-1.5875 9.13606,-0.40746 0.75406,0.30956 1.44727,0.762 2.21985,1.02129 0.77259,0.25929 1.61925,0.32279 2.42359,0.50536 2.82575,0.64029 5.11704,2.79135 6.58812,5.29166 1.47109,2.50032 2.23309,5.32871 2.97921,8.128 l 1.82563,6.83419 c 1.5875,5.9399 3.175,11.93006 3.54277,18.07104 a 644.92346,644.92346 0 0 1 -66.36809,0.37836 c 1.439333,-2.73579 2.910417,-5.63827 2.788708,-8.73125 -0.121708,-3.09298 -1.902354,-6.14363 -1.259416,-9.19163 0.410104,-1.94204 1.738312,-3.54277 2.550584,-5.34987 2.3151,-5.16467 0.51329,-12.11527 4.58258,-16.04698 1.830924,-1.76742 4.497924,-2.43681 7.045864,-2.35215 3.24908,0.10848 6.57489,1.12184 9.78958,1.61661 4.11692,0.62441 8.00629,0.99483 12.15496,0.23283 z"
       data-name="Path 318"
       id="Path_318" />
    <path
       style="opacity:0.1;stroke-width:0.26458332"
       inkscape:connector-curvature="0"
       d="m 163.08412,255.04777 -0.0265,0.37835 v 0.0265 l -0.045,0.60854 -0.3519,4.89744 -0.42598,5.90021 -0.1217,1.66158 -0.26459,3.556 v 0.045 l -28.31041,0.26458 -46.458196,0.50271 v 0.22225 h -0.03704 v -0.29633 l 0.119062,-3.79942 0.227542,-7.42421 0.195791,-6.29443 0.01852,-0.62707 a 2.7860625,2.7860625 0 0 1 3.021542,-2.69081 c 1.248833,0.10584 2.870729,0.23548 4.810125,0.37306 l 0.79375,0.0582 c 11.199814,0.77788 31.898174,1.78329 52.784374,0.52917 0.43921,-0.0238 0.88107,-0.0503 1.32292,-0.082 3.2385,-0.20373 6.47436,-0.46567 9.67846,-0.79375 a 2.7860625,2.7860625 0 0 1 3.06917,2.97127 z"
       data-name="Path 319"
       id="Path_319" />
    <path
       style="fill:#3f3d56;stroke-width:0.26458332"
       inkscape:connector-curvature="0"
       d="m 87.071967,273.11087 v -0.22225 l 46.466133,-0.50535 28.31041,-0.26458 h 0.0794 v -0.045 l 0.26458,-3.556 0.11377,-1.5875 0.43392,-5.98223 0.34131,-4.73604 v -0.11642 a 2.8090812,2.8090812 0 0 0 -0.0291,-0.65352 0.079375,0.079375 0 0 0 0,-0.0265 2.7492854,2.7492854 0 0 0 -0.52917,-1.22767 2.7887083,2.7887083 0 0 0 -2.49238,-1.05833 c -3.2041,0.32808 -6.43995,0.59002 -9.67845,0.79375 -0.44186,0.0318 -0.88371,0.0582 -1.32292,0.082 -20.88621,1.2409 -41.58456,0.23548 -52.784384,-0.52917 l -0.79375,-0.0582 c -1.939391,-0.13759 -3.561287,-0.26459 -4.81012,-0.37307 a 2.7887083,2.7887083 0 0 0 -2.973917,2.2569 2.9104167,2.9104167 0 0 0 -0.04762,0.43392 l -0.179916,5.86316 -0.246063,7.42686 -0.116417,3.79941 v 0.29634 z"
       data-name="Path 320"
       id="Path_320" />
    <path
       style="opacity:0.1;stroke-width:0.26458332"
       inkscape:connector-curvature="0"
       d="m 163.16349,256.9025 -0.32544,4.05606 -0.48418,6.04573 -0.12171,1.51342 -0.26459,3.38931 -0.0159,0.16933 v 0.045 0 l -0.0397,0.39158 0.0291,-0.39158 h -0.0767 l -28.31042,0.26458 -46.474066,0.50271 v -0.0741 l 0.129646,-3.79942 0.264583,-7.42421 0.169334,-4.93447 a 1.68275,1.68275 0 0 1 0.809625,-1.38907 1.6536458,1.6536458 0 0 1 1.000125,-0.23812 c 0.555625,0.045 1.23825,0.0979 2.034646,0.1561 1.293812,0.0952 2.88925,0.20638 4.746623,0.32279 3.43958,0.21696 7.754944,0.4498 12.700004,0.6403 13.75833,0.52916 32.33208,0.70643 49.9745,-0.83873 0.79375,-0.0688 1.61396,-0.14552 2.41565,-0.22225 a 1.6562917,1.6562917 0 0 1 0.92075,0.17462 1.3649854,1.3649854 0 0 1 0.22754,0.14288 1.6245417,1.6245417 0 0 1 0.52917,0.65087 0.942975,0.942975 0 0 1 0.0661,0.1614 1.6613187,1.6613187 0 0 1 0.0953,0.68527 z"
       data-name="Path 321"
       id="Path_321" />
    <path
       style="opacity:0.1;stroke-width:0.26458332"
       inkscape:connector-curvature="0"
       d="m 73.408883,260.52464 v 0.84402 a 1.6218958,1.6218958 0 0 1 -0.926041,1.4658 l -10.609792,0.20373 a 1.61925,1.61925 0 0 1 -0.944562,-1.47373 v -0.79375 z"
       data-name="Path 322"
       id="Path_322" />
    <path
       style="fill:#3f3d56;stroke-width:0.26458332"
       inkscape:connector-curvature="0"
       d="m 73.538529,263.33187 -13.824479,0.26459 v -2.29394 l 13.824479,-0.26458 z"
       data-name="Path 323"
       id="Path_323" />
    <path
       style="opacity:0.1;stroke-width:0.26458332"
       inkscape:connector-curvature="0"
       d="m 73.538529,263.33187 -13.824479,0.26459 v -2.29394 l 13.824479,-0.26458 z"
       data-name="Path 324"
       id="Path_324" />
    <path
       style="fill:#3f3d56;stroke-width:0.26458332"
       inkscape:connector-curvature="0"
       d="m 74.067696,263.33187 -13.824479,0.26459 v -2.29394 l 13.824479,-0.26458 z"
       data-name="Path 325"
       id="Path_325" />
    <path
       style="opacity:0.1;stroke-width:0.26458332"
       inkscape:connector-curvature="0"
       d="m 174.24689,261.05381 v 0.84402 a 1.6218958,1.6218958 0 0 0 0.92604,1.46579 l 10.60979,0.20373 a 1.61925,1.61925 0 0 0 0.94456,-1.47373 v -0.79375 z"
       data-name="Path 326"
       id="Path_326" />
    <path
       style="opacity:0.1;stroke-width:0.26458332"
       inkscape:connector-curvature="0"
       d="m 174.1146,263.86104 13.82447,0.26458 v -2.29393 L 174.1146,261.5671 Z"
       data-name="Path 327"
       id="Path_327" />
    <path
       style="fill:#3f3d56;stroke-width:0.26458332"
       inkscape:connector-curvature="0"
       d="m 173.58543,263.86104 13.82448,0.26458 v -2.29393 l -13.82448,-0.26459 z"
       data-name="Path 328"
       id="Path_328" />
    <path
       style="fill:#3f3d56;stroke-width:0.26458332"
       inkscape:connector-curvature="0"
       d="m 114.86645,209.96806 c 0.0212,1.85208 -0.83608,3.59833 -1.56369,5.31019 a 43.256994,43.256994 0 0 0 -3.34962,19.76702 c 0.19314,2.91042 0.68262,5.82083 0.19314,8.70479 -0.48948,2.88396 -2.23043,5.75998 -5.02708,6.58813 4.63815,2.76489 10.91671,2.47385 15.28233,-0.7038 2.32569,-1.69333 4.05871,-4.05606 5.75469,-6.3791 a 25.892125,25.892125 0 0 1 -3.5216,11.8401 27.365854,27.365854 0 0 0 19.44952,-10.80029 c 1.14035,-1.53723 2.13254,-3.22527 2.57175,-5.08794 0.81756,-3.43958 -0.32279,-7.0141 -1.19327,-10.45104 a 70.393719,70.393719 0 0 1 -1.63248,-8.73125 c -0.11377,-0.94191 -0.20638,-1.91029 0.0265,-2.83104 0.26458,-1.07685 0.97102,-1.98702 1.49225,-2.96862 1.48166,-2.78871 1.51606,-6.1648 0.7567,-9.22867 -0.75935,-3.06388 -2.24631,-5.88963 -3.72004,-8.68098 -1.18004,-2.23837 -2.46062,-4.57994 -4.61962,-5.89492 -1.34938,-0.8202 -2.91042,-1.16152 -4.46617,-1.49225 l -6.71248,-1.43668 c -1.46844,-0.31486 -2.97921,-0.62971 -4.46352,-0.39952 -2.5056,0.39158 -4.27037,2.20133 -5.82083,4.0587 -1.21444,1.44463 -4.18307,4.15661 -4.39209,6.04838 -0.1905,1.7436 1.34938,4.6646 1.61132,6.50346 0.34395,2.38125 0.58737,1.5875 1.93145,3.048 0.84932,0.90487 1.397,1.94998 1.41288,3.21733 z"
       data-name="Path 329"
       id="Path_329" />
    <g
       id="React-icon"
       transform="matrix(0.26458333,0,0,0.26458333,117.91471,200.63224)">
      <path
         id="Path_330"
         data-name="Path 330"
         d="m 263.668,117.179 c 0,-5.827 -7.3,-11.35 -18.487,-14.775 2.582,-11.4 1.434,-20.477 -3.622,-23.382 a 7.861,7.861 0 0 0 -4.016,-1 v 4 a 4.152,4.152 0 0 1 2.044,0.466 c 2.439,1.4 3.5,6.724 2.672,13.574 -0.2,1.685 -0.52,3.461 -0.914,5.272 A 86.9,86.9 0 0 0 229.959,99.38 87.469,87.469 0 0 0 222.5,90.415 c 5.845,-5.433 11.332,-8.41 15.062,-8.41 V 78 78 c -4.931,0 -11.386,3.514 -17.913,9.611 -6.527,-6.061 -12.982,-9.539 -17.913,-9.539 v 4 c 3.712,0 9.216,2.959 15.062,8.356 a 84.687,84.687 0 0 0 -7.405,8.947 83.732,83.732 0 0 0 -11.4,1.972 c -0.412,-1.793 -0.717,-3.532 -0.932,-5.2 -0.843,-6.85 0.2,-12.175 2.618,-13.592 a 3.991,3.991 0 0 1 2.062,-0.466 v -4 0 a 8,8 0 0 0 -4.052,1 c -5.039,2.9 -6.168,11.96 -3.568,23.328 -11.153,3.443 -18.415,8.947 -18.415,14.757 0,5.828 7.3,11.35 18.487,14.775 -2.582,11.4 -1.434,20.477 3.622,23.382 a 7.882,7.882 0 0 0 4.034,1 c 4.931,0 11.386,-3.514 17.913,-9.611 6.527,6.061 12.982,9.539 17.913,9.539 a 8,8 0 0 0 4.052,-1 c 5.039,-2.9 6.168,-11.96 3.568,-23.328 11.111,-3.42 18.373,-8.943 18.373,-14.752 z m -23.346,-11.96 c -0.663,2.313 -1.488,4.7 -2.421,7.083 -0.735,-1.434 -1.506,-2.869 -2.349,-4.3 -0.825,-1.434 -1.7,-2.833 -2.582,-4.2 2.547,0.377 5.004,0.843 7.353,1.417 z m -8.212,19.1 c -1.4,2.421 -2.833,4.716 -4.321,6.85 -2.672,0.233 -5.379,0.359 -8.1,0.359 -2.708,0 -5.415,-0.126 -8.069,-0.341 q -2.232,-3.2 -4.339,-6.814 -2.044,-3.523 -3.73,-7.136 c 1.112,-2.4 2.367,-4.805 3.712,-7.154 1.4,-2.421 2.833,-4.716 4.321,-6.85 2.672,-0.233 5.379,-0.359 8.1,-0.359 2.708,0 5.415,0.126 8.069,0.341 q 2.232,3.2 4.339,6.814 2.044,3.523 3.73,7.136 c -1.13,2.399 -2.367,4.801 -3.712,7.15 z m 5.792,-2.331 c 0.968,2.4 1.793,4.805 2.474,7.136 -2.349,0.574 -4.823,1.058 -7.387,1.434 0.879,-1.381 1.757,-2.8 2.582,-4.25 0.829,-1.437 1.596,-2.889 2.329,-4.324 z m -18.182,19.128 a 73.921,73.921 0 0 1 -4.985,-5.738 c 1.614,0.072 3.263,0.126 4.931,0.126 1.685,0 3.353,-0.036 4.985,-0.126 a 69.993,69.993 0 0 1 -4.931,5.738 z m -13.34,-10.561 c -2.546,-0.377 -5,-0.843 -7.352,-1.417 0.663,-2.313 1.488,-4.7 2.421,-7.083 0.735,1.434 1.506,2.869 2.349,4.3 0.843,1.431 1.702,2.837 2.582,4.2 z m 13.25,-37.314 a 73.924,73.924 0 0 1 4.985,5.738 c -1.614,-0.072 -3.263,-0.126 -4.931,-0.126 -1.686,0 -3.353,0.036 -4.985,0.126 a 69.993,69.993 0 0 1 4.931,-5.738 z M 206.362,103.8 c -0.879,1.381 -1.757,2.8 -2.582,4.25 -0.825,1.434 -1.6,2.869 -2.331,4.3 -0.968,-2.4 -1.793,-4.805 -2.474,-7.136 2.348,-0.551 4.825,-1.035 7.387,-1.414 z m -16.227,22.449 c -6.348,-2.708 -10.454,-6.258 -10.454,-9.073 0,-2.815 4.106,-6.383 10.454,-9.073 1.542,-0.663 3.228,-1.255 4.967,-1.811 a 86.122,86.122 0 0 0 4.034,10.92 84.9,84.9 0 0 0 -3.981,10.866 c -1.775,-0.553 -3.461,-1.163 -5.021,-1.826 z m 9.647,25.623 c -2.439,-1.4 -3.5,-6.724 -2.672,-13.574 0.2,-1.686 0.52,-3.461 0.914,-5.272 a 86.9,86.9 0 0 0 11.386,1.954 87.465,87.465 0 0 0 7.459,8.965 c -5.845,5.433 -11.332,8.41 -15.062,8.41 a 4.279,4.279 0 0 1 -2.026,-0.48 z m 42.532,-13.663 c 0.843,6.85 -0.2,12.175 -2.618,13.592 a 3.99,3.99 0 0 1 -2.062,0.466 c -3.712,0 -9.216,-2.959 -15.062,-8.356 a 84.689,84.689 0 0 0 7.405,-8.947 83.731,83.731 0 0 0 11.4,-1.972 50.194,50.194 0 0 1 0.936,5.22 z m 6.9,-11.96 c -1.542,0.663 -3.228,1.255 -4.967,1.811 a 86.12,86.12 0 0 0 -4.034,-10.92 84.9,84.9 0 0 0 3.981,-10.866 c 1.775,0.556 3.461,1.165 5.039,1.829 6.348,2.708 10.454,6.258 10.454,9.073 -0.017,2.818 -4.123,6.386 -10.471,9.076 z"
         inkscape:connector-curvature="0"
         style="fill:#61dafb" />
      <path
         id="Path_331"
         data-name="Path 331"
         d="M 320.8,78.4 Z"
         transform="translate(-119.082,-0.328)"
         inkscape:connector-curvature="0"
         style="fill:#61dafb" />
      <circle
         id="Ellipse_112"
         data-name="Ellipse 112"
         cx="8.1940002"
         cy="8.1940002"
         r="8.1940002"
         transform="translate(211.472,108.984)"
         style="fill:#61dafb" />
      <path
         id="Path_332"
         data-name="Path 332"
         d="M 520.5,78.1 Z"
         transform="translate(-282.975,-0.082)"
         inkscape:connector-curvature="0"
         style="fill:#61dafb" />
    </g>
    <g
       id="g94"
       transform="matrix(0.12332742,0,0,0.12332742,51.540781,215.19621)">
      <polygon
         style="fill:#dd0031"
         id="polygon4"
         points="203.9,186.3 218.1,63.2 125,30 31.9,63.2 46.1,186.3 125,230 "
         class="st0"
         transform="translate(16.949153,10.59322)" />
      <polygon
         style="fill:#c3002f"
         id="polygon6"
         points="125,153.4 125,230 203.9,186.3 218.1,63.2 125,30 125,52.2 125,52.1 "
         class="st1"
         transform="translate(16.949153,10.59322)" />
      <path
         style="fill:#ffffff"
         inkscape:connector-curvature="0"
         id="path8"
         d="m 141.94915,62.69322 -58.199997,130.5 v 0 h 21.699997 v 0 l 11.7,-29.2 h 49.4 l 11.7,29.2 v 0 h 21.7 v 0 z m 17,83.3 h -34 l 17,-40.9 z"
         class="st2" />
    </g>
  </g>
</svg>
